<svg width="52" height="52" viewBox="0 0 52 52" fill="none" xmlns="http://www.w3.org/2000/svg">
<g clip-path="url(#clip0)">
<path fill-rule="evenodd" clip-rule="evenodd" d="M29.9375 1.7596L1.33513 6.47241C0.469108 6.6148 -0.121072 7.43928 0.0213191 8.3053L6.87526 49.9108C7.01766 50.7768 7.84214 51.3671 8.70816 51.2247L37.3134 46.5119C38.1765 46.3695 38.7696 45.545 38.6273 44.679L31.7703 3.07351C31.628 2.20739 30.8034 1.61721 29.9375 1.7596Z" fill="#EB8400"/>
<path d="M11.4181 41.5459C11.0409 41.5459 10.7081 41.2731 10.6447 40.8887C10.5742 40.4611 10.8638 40.0573 11.2914 39.9868L19.6934 38.6017C20.1208 38.5308 20.5248 38.8207 20.5953 39.2484C20.6658 39.676 20.3762 40.0798 19.9487 40.1503L11.5466 41.5354C11.5034 41.5425 11.4605 41.5459 11.4181 41.5459Z" fill="white"/>
<path d="M12.0645 45.4579C11.6872 45.4579 11.3545 45.1851 11.2911 44.8007C11.2206 44.3731 11.5102 43.9693 11.9377 43.8988L19.6934 42.6205C20.1216 42.5497 20.5247 42.8395 20.5952 43.2672C20.6657 43.6947 20.3762 44.0985 19.9486 44.169L12.193 45.4473C12.1498 45.4544 12.1068 45.4579 12.0645 45.4579Z" fill="white"/>
<circle cx="18" cy="21" r="8" fill="#BF6C01"/>
<path fill-rule="evenodd" clip-rule="evenodd" d="M21.3959 0.75415H50.4253C51.2913 0.75415 52.0001 1.46296 52.0001 2.32908V44.5337C52.0001 45.3997 51.2913 46.1086 50.4253 46.1086H21.3959C20.5298 46.1086 19.821 45.3998 19.821 44.5337V2.32908C19.821 1.46306 20.5298 0.75415 21.3959 0.75415Z" fill="#F9F7F8"/>
<path d="M46.0269 37.0079H25.7913C25.3578 37.0079 25.0066 36.6566 25.0066 36.2233C25.0066 35.7899 25.3579 35.4386 25.7913 35.4386H46.0269C46.4603 35.4386 46.8115 35.7899 46.8115 36.2233C46.8115 36.6566 46.4603 37.0079 46.0269 37.0079Z" fill="#3D595A"/>
<path d="M33.6535 40.9733H25.7913C25.3578 40.9733 25.0066 40.622 25.0066 40.1886C25.0066 39.7552 25.3579 39.4039 25.7913 39.4039H33.6535C34.087 39.4039 34.4382 39.7552 34.4382 40.1886C34.4382 40.6219 34.087 40.9733 33.6535 40.9733Z" fill="#3D595A"/>
<path d="M46.0268 40.9733H38.1675C37.734 40.9733 37.3828 40.622 37.3828 40.1886C37.3828 39.7552 37.7341 39.4039 38.1675 39.4039H46.0268C46.4603 39.4039 46.8115 39.7552 46.8115 40.1886C46.8115 40.6219 46.4603 40.9733 46.0268 40.9733Z" fill="#3D595A"/>
<circle cx="36" cy="17" r="9" fill="#D6D6D6"/>
</g>
<defs>
<clipPath id="clip0">
<rect width="52" height="52" fill="white"/>
</clipPath>
</defs>
</svg>
