<svg width="59" height="61" viewBox="0 0 59 61" fill="none" xmlns="http://www.w3.org/2000/svg">
<path fill-rule="evenodd" clip-rule="evenodd" d="M29.9373 0.0211969L1.33501 4.734C0.468986 4.87639 -0.121194 5.70088 0.021197 6.5669L6.87514 48.1724C7.01753 49.0384 7.84202 49.6287 8.70804 49.4863L37.3133 44.7735C38.1764 44.6311 38.7695 43.8066 38.6271 42.9406L31.7701 1.33511C31.6279 0.468986 30.8033 -0.121194 29.9373 0.0211969Z" fill="#0056F5"/>
<path d="M11.418 39.8075C11.0408 39.8075 10.708 39.5347 10.6446 39.1503C10.5741 38.7227 10.8637 38.3189 11.2912 38.2484L19.6933 36.8633C20.1207 36.7924 20.5247 37.0823 20.5952 37.51C20.6657 37.9376 20.3761 38.3414 19.9485 38.4119L11.5465 39.797C11.5033 39.8041 11.4604 39.8075 11.418 39.8075Z" fill="white"/>
<path d="M12.0645 43.7195C11.6872 43.7195 11.3545 43.4467 11.2911 43.0622C11.2206 42.6347 11.5102 42.2309 11.9377 42.1604L19.6934 40.8821C20.1216 40.8113 20.5247 41.1011 20.5952 41.5288C20.6657 41.9563 20.3762 42.3601 19.9486 42.4306L12.193 43.7089C12.1498 43.716 12.1068 43.7195 12.0645 43.7195Z" fill="white"/>
<circle cx="19" cy="18" r="9" fill="#0049D0"/>
<path fill-rule="evenodd" clip-rule="evenodd" d="M29.2597 8.4076L57.2999 15.921C58.1365 16.1451 58.6377 17.0132 58.4135 17.8498L47.4901 58.6163C47.266 59.4529 46.3979 59.9542 45.5613 59.73L17.5211 52.2166C16.6846 51.9925 16.1834 51.1244 16.4075 50.2878L27.3309 9.52127C27.555 8.68475 28.4232 8.18345 29.2597 8.4076Z" fill="#099D2F"/>
<path d="M43.6684 49.801L24.1223 44.5637C23.7036 44.4515 23.4553 44.0213 23.5674 43.6027C23.6796 43.1841 24.1098 42.9357 24.5284 43.0478L44.0745 48.2852C44.4932 48.3974 44.7416 48.8276 44.6294 49.2462C44.5172 49.6648 44.0871 49.9132 43.6684 49.801Z" fill="white"/>
<path d="M30.6903 50.4287L23.0959 48.3938C22.6772 48.2816 22.4289 47.8513 22.5411 47.4327C22.6532 47.0141 23.0835 46.7657 23.5021 46.8779L31.0964 48.9128C31.5151 49.025 31.7634 49.4552 31.6513 49.8738C31.5391 50.2923 31.109 50.5409 30.6903 50.4287Z" fill="white"/>
<path d="M42.642 53.631L35.0505 51.5969C34.6318 51.4847 34.3835 51.0545 34.4956 50.6359C34.6078 50.2173 35.0381 49.9689 35.4567 50.081L43.0482 52.1152C43.4669 52.2274 43.7152 52.6576 43.603 53.0762C43.4909 53.4947 43.0607 53.7432 42.642 53.631Z" fill="white"/>
<circle cx="39" cy="28" r="9" fill="#087B26"/>
</svg>
