<?xml version="1.0" standalone="no"?>
<!DOCTYPE svg PUBLIC "-//W3C//DTD SVG 20010904//EN"
 "http://www.w3.org/TR/2001/REC-SVG-20010904/DTD/svg10.dtd">
<svg version="1.0" xmlns="http://www.w3.org/2000/svg"
 width="700.000000pt" height="700.000000pt" viewBox="0 0 700.000000 700.000000"
 preserveAspectRatio="xMidYMid meet">
<metadata>
Created by potrace 1.11, written by Peter Selinger 2001-2013
</metadata>
<g transform="translate(0.000000,700.000000) scale(0.100000,-0.100000)"
fill="#000000" stroke="none">
<path d="M3510 6863 c-124 -45 -217 -152 -228 -262 -10 -110 33 -208 140 -319
l57 -59 -117 -116 c-140 -138 -153 -151 -261 -247 -47 -41 -216 -206 -375
-366 -160 -160 -453 -448 -651 -640 -198 -192 -495 -482 -660 -644 -165 -163
-354 -349 -421 -413 l-121 -118 -94 82 c-176 153 -212 169 -329 144 -110 -23
-170 -63 -212 -142 -76 -140 -53 -308 55 -410 29 -28 68 -55 87 -61 148 -45
287 -7 411 115 l67 65 344 -348 c340 -345 480 -490 568 -591 25 -28 145 -152
265 -275 121 -123 274 -282 339 -354 66 -71 284 -298 485 -504 202 -206 411
-421 465 -477 l100 -103 -25 -27 c-14 -16 -56 -62 -93 -103 -104 -115 -121
-149 -120 -245 0 -59 6 -93 22 -127 27 -61 96 -129 164 -164 48 -24 62 -27
157 -26 122 2 170 20 225 84 60 69 101 183 90 248 -16 100 -50 158 -158 268
l-71 73 45 41 c25 23 99 94 166 157 66 64 183 174 260 246 76 71 202 191 279
266 77 75 177 171 222 214 45 43 80 82 76 88 -3 6 -1 7 5 3 6 -3 234 217 529
511 285 285 559 556 608 602 50 47 146 139 215 205 69 67 149 143 178 170 l52
49 68 -64 c151 -143 219 -187 292 -188 72 -2 111 18 185 93 59 58 74 81 89
129 53 170 -27 358 -180 423 -25 11 -64 17 -106 16 -61 -1 -75 -5 -137 -42
-38 -23 -101 -68 -139 -100 l-70 -58 -254 261 c-139 144 -314 327 -388 406
-74 80 -308 320 -520 535 -721 731 -897 911 -1001 1026 -57 63 -170 182 -251
265 l-146 150 94 98 c102 104 148 182 160 269 8 60 -29 144 -87 199 -95 90
-247 130 -349 92z m225 -51 c90 -43 157 -125 171 -209 11 -69 -75 -220 -190
-332 l-46 -45 -30 29 c-16 16 -30 32 -30 36 0 4 34 40 76 80 97 94 124 145
115 215 -10 73 -50 128 -119 163 -41 21 -57 24 -119 22 -37 -1 -49 -8 -96 -53
-66 -65 -87 -125 -69 -195 17 -61 137 -208 352 -427 242 -249 238 -244 400
-419 80 -87 148 -157 151 -157 7 0 163 -159 285 -290 43 -47 111 -117 149
-155 298 -299 984 -1003 1285 -1320 52 -54 113 -118 135 -141 85 -88 81 -79
48 -114 l-29 -31 -144 148 c-198 202 -580 600 -704 733 -174 187 -655 691
-695 729 -143 137 -205 197 -280 276 -47 50 -203 211 -346 359 -143 148 -265
274 -270 280 -6 6 -57 63 -114 126 -57 63 -122 133 -143 155 -71 73 -98 109
-130 174 -58 115 -37 225 56 306 100 88 221 109 331 57z m-106 -82 c56 -16
116 -73 131 -125 19 -69 -5 -122 -97 -212 -41 -40 -77 -73 -81 -72 -12 1 -92
101 -129 161 -34 56 -35 58 -23 107 19 79 85 144 155 150 6 1 25 -3 44 -9z
m-69 -603 c0 -5 -26 -32 -57 -60 -32 -29 -146 -138 -253 -243 -107 -104 -244
-237 -305 -295 -60 -57 -159 -151 -220 -209 -204 -195 -280 -267 -340 -321
-33 -29 -200 -191 -370 -359 -398 -390 -766 -746 -877 -846 -48 -44 -165 -155
-260 -247 -132 -128 -187 -175 -234 -198 -215 -106 -409 16 -407 254 0 57 6
79 34 133 66 130 198 175 334 115 41 -18 169 -117 218 -168 l27 -29 -28 -27
-28 -27 -74 76 c-41 42 -91 84 -112 95 -91 47 -232 4 -280 -85 -30 -56 -10
-192 35 -238 29 -30 74 -54 117 -62 51 -10 149 28 213 82 29 25 239 227 467
451 228 223 491 480 585 571 93 91 226 221 295 290 69 69 152 148 185 177 33
28 191 181 351 340 160 158 349 342 420 408 71 66 214 204 319 308 l190 187
27 -32 c15 -18 28 -37 28 -41z m92 -306 c21 -5 51 -21 69 -35 17 -14 39 -26
49 -26 21 0 82 -65 103 -111 38 -82 47 -142 46 -304 -1 -216 10 -284 59 -387
57 -118 73 -178 81 -304 6 -106 9 -115 44 -172 20 -33 37 -71 37 -84 0 -31
-24 -65 -62 -84 -29 -15 -30 -15 -23 7 4 13 14 30 22 38 21 20 10 90 -21 140
-27 42 -33 68 -41 182 -6 83 -22 148 -59 232 -50 112 -58 161 -65 392 -7 203
-9 226 -33 293 -28 77 -44 100 -90 134 l-28 19 6 -43 c3 -24 9 -77 13 -118 9
-84 29 -132 67 -156 13 -9 22 -19 20 -22 -12 -11 -76 51 -97 95 -19 40 -23 62
-22 130 1 45 -2 85 -7 88 -4 3 -28 -23 -53 -57 -25 -35 -58 -72 -73 -83 -15
-11 -33 -26 -40 -32 -7 -7 -17 -13 -23 -13 -5 0 -33 -23 -61 -50 -37 -36 -56
-48 -67 -42 -12 7 -10 14 13 42 16 18 53 49 84 68 30 20 88 69 129 110 l74 75
-52 -29 c-29 -15 -70 -47 -90 -69 -20 -23 -61 -56 -91 -74 -30 -18 -68 -47
-83 -64 l-29 -32 19 33 c21 39 130 145 199 195 27 19 66 38 87 42 20 4 40 11
42 16 11 17 -38 31 -87 26 -104 -13 -241 -117 -338 -257 -69 -101 -116 -137
-278 -219 -132 -66 -157 -85 -181 -136 -13 -28 -30 -46 -51 -55 -39 -16 -46
-9 -29 32 30 77 93 130 184 158 56 17 171 76 212 108 18 15 90 96 160 180 173
208 239 250 355 223z m-12 -63 c-91 -20 -229 -135 -326 -271 -81 -115 -99
-132 -188 -185 -44 -26 -109 -75 -145 -109 -51 -49 -70 -61 -87 -57 -16 4 -21
11 -17 22 18 48 54 76 170 133 139 69 183 107 278 238 33 46 84 104 113 131
66 59 165 110 212 109 34 -1 34 -1 -10 -11z m158 -96 c23 -54 52 -149 52 -170
0 -12 -3 -12 -16 -1 -25 20 -41 60 -47 116 -3 29 -13 66 -22 82 -12 25 -13 30
-1 25 8 -3 23 -26 34 -52z m-108 -83 c0 -41 31 -97 82 -149 25 -25 34 -40 23
-35 -36 14 -82 17 -104 6 -26 -15 -45 -83 -38 -142 7 -60 -5 -73 -49 -51 -26
12 -31 18 -23 29 14 16 -3 17 -19 1 -16 -16 -15 -38 2 -38 8 0 28 -8 44 -17
29 -17 31 -17 51 1 18 17 20 26 15 69 -7 47 -6 50 12 43 42 -16 70 -17 82 -3
11 12 6 16 -33 21 -25 4 -50 4 -57 0 -8 -5 -9 0 -5 17 4 13 7 30 7 37 0 14 87
17 109 3 37 -23 -30 -192 -115 -289 -69 -78 -130 -79 -217 -2 -20 18 -37 27
-37 22 0 -6 5 -14 10 -17 6 -4 8 -15 5 -26 -5 -13 -2 -17 8 -14 16 7 70 -33
62 -45 -3 -5 -8 -37 -11 -73 -9 -96 20 -138 134 -196 75 -38 138 -108 157
-174 16 -54 16 -85 5 -360 -7 -166 -11 -343 -9 -394 4 -88 6 -94 44 -150 23
-32 82 -142 133 -245 71 -143 97 -188 111 -188 11 0 41 -18 67 -41 27 -22 61
-47 77 -55 15 -8 27 -22 27 -32 0 -9 11 -36 25 -59 13 -24 20 -43 16 -43 -16
0 -60 41 -66 60 -5 15 -15 20 -40 20 -25 0 -40 8 -60 32 -27 32 -89 57 -145
58 -18 0 -29 8 -37 28 -10 26 -208 269 -279 343 -84 86 -123 241 -133 524 -6
162 -5 172 16 215 32 65 28 69 -19 23 -24 -22 -53 -46 -65 -52 -72 -37 -219
22 -257 103 -18 38 -36 55 -36 34 2 -35 49 -106 94 -139 54 -41 112 -55 178
-44 46 8 48 17 -27 -100 -59 -91 -67 -110 -72 -170 -3 -38 2 -67 22 -120 l26
-70 -50 50 c-33 33 -46 52 -38 57 8 5 5 8 -8 8 -11 1 -37 16 -59 35 -35 31
-38 38 -32 69 4 19 13 39 21 46 14 12 15 95 1 118 -3 6 -7 30 -7 54 -2 59 -13
76 -54 84 -19 3 -35 12 -35 19 0 21 -34 42 -70 43 -36 0 -113 -29 -125 -48 -3
-5 -15 -10 -25 -10 -11 0 -25 -12 -32 -27 -9 -20 -22 -29 -44 -31 -29 -3 -172
22 -181 32 -20 20 -32 230 -17 291 7 26 7 26 24 -13 21 -47 70 -86 140 -113
46 -17 59 -18 110 -8 32 6 72 20 89 30 29 18 60 63 50 74 -3 2 -29 -8 -59 -23
-44 -21 -68 -26 -122 -26 -58 1 -74 6 -119 35 -59 38 -88 89 -91 163 -3 55
-15 51 -24 -10 -9 -65 -49 -101 -259 -236 -83 -54 -166 -127 -145 -128 239 -8
231 -6 465 -76 28 -9 84 -16 125 -17 41 -1 78 -6 82 -12 14 -19 8 -26 -12 -15
-19 10 -60 -1 -60 -16 0 -3 16 -25 35 -48 19 -24 35 -47 35 -52 0 -5 -104 -9
-238 -9 -130 0 -262 -2 -292 -5 -76 -7 -216 5 -281 24 -75 22 -208 103 -220
133 -19 50 -11 89 30 141 64 81 421 423 517 496 23 17 95 73 160 125 130 103
221 152 295 159 42 4 60 -1 133 -38 77 -39 90 -42 137 -37 59 7 96 32 162 109
45 53 97 137 97 157 0 6 -7 11 -15 11 -44 0 -43 122 2 128 17 2 23 -3 28 -27
8 -37 21 -40 31 -8 13 42 46 78 120 127 40 28 84 61 96 74 28 28 38 24 38 -15z
m-381 -211 c-30 -72 -80 -132 -137 -165 -26 -15 -48 -31 -50 -35 -2 -4 -9 -8
-15 -8 -6 0 -28 -18 -49 -41 -33 -36 -39 -39 -57 -27 -12 7 -21 19 -21 26 0
23 102 116 165 151 76 43 140 94 162 131 26 45 27 28 2 -32z m569 -338 c11
-41 37 -118 57 -170 30 -76 38 -116 45 -203 7 -88 14 -119 39 -172 33 -70 36
-89 21 -129 -8 -21 -16 -26 -44 -26 -44 0 -50 9 -25 46 25 38 25 113 0 162
-10 21 -21 69 -24 112 -5 73 -17 118 -71 265 -37 102 -46 180 -38 313 l7 117
6 -120 c4 -75 14 -148 27 -195z m-572 178 c-24 -35 -57 -75 -73 -89 -35 -31
-112 -62 -142 -57 -21 3 -21 5 11 36 18 18 62 52 98 75 36 23 78 60 95 83 24
32 33 38 43 28 10 -10 3 -25 -32 -76z m911 25 c22 -54 107 -158 151 -185 66
-40 122 -100 210 -222 83 -116 119 -155 351 -381 179 -173 720 -731 757 -779
52 -69 64 -105 64 -198 0 -73 -3 -88 -25 -121 -42 -60 -155 -109 -305 -132
-183 -28 -348 -17 -616 41 -180 38 -222 51 -379 118 -130 56 -180 65 -226 42
-17 -9 -43 -16 -56 -16 -12 0 -23 -4 -23 -10 0 -14 30 -12 82 5 33 12 51 13
72 5 15 -5 24 -14 21 -20 -3 -5 2 -10 12 -10 10 0 35 -5 56 -11 34 -9 37 -12
25 -26 -10 -12 -12 -52 -11 -155 3 -137 3 -138 -20 -138 -46 0 -64 12 -85 56
-14 27 -35 52 -54 62 -17 9 -42 28 -55 41 -19 20 -21 27 -11 40 11 14 11 14
-4 3 -14 -11 -22 -11 -47 2 -45 24 -46 35 -10 66 19 16 30 29 25 30 -6 0 -22
-12 -37 -26 l-28 -27 -17 44 c-10 24 -35 78 -55 119 l-38 75 22 23 c17 18 18
22 4 16 -9 -3 -17 -10 -17 -15 0 -20 -19 -7 -28 19 -5 15 -31 59 -58 97 l-49
70 2 159 c3 186 3 186 113 239 61 29 72 31 180 32 105 0 121 -3 185 -29 39
-16 72 -32 75 -35 36 -43 263 -198 330 -225 25 -10 104 -47 175 -82 72 -35
161 -75 198 -89 77 -29 159 -68 199 -96 34 -24 41 -24 26 1 -18 29 -117 96
-191 130 -82 37 -188 99 -205 119 -71 88 -107 160 -192 386 -81 213 -162 380
-203 413 -10 9 -44 12 -104 10 l-88 -3 -6 111 c-3 61 -9 117 -14 125 -4 8 -24
38 -44 68 -32 48 -37 62 -41 135 -5 63 -11 89 -29 114 -12 18 -19 36 -16 42
13 21 37 9 52 -27z m-58 -79 c15 -24 21 -52 21 -92 0 -45 7 -68 32 -112 57
-102 68 -124 68 -145 0 -18 -2 -17 -18 6 -9 15 -34 52 -56 82 -36 53 -38 61
-38 128 1 57 -3 77 -19 97 -16 21 -27 72 -15 72 2 0 13 -16 25 -36z m-359 -44
c2 -75 51 -282 81 -339 11 -21 24 -75 29 -121 10 -85 25 -147 41 -164 15 -17
10 -57 -12 -92 -24 -40 -47 -54 -84 -54 l-27 0 30 28 c18 17 33 44 37 66 8 39
0 113 -14 131 -5 5 -11 39 -14 75 -3 36 -15 92 -27 125 -53 153 -70 222 -70
292 0 60 15 131 26 120 2 -1 3 -32 4 -67z m-42 -210 c5 -19 22 -65 36 -102 14
-38 31 -101 37 -140 6 -40 18 -94 26 -120 17 -53 12 -103 -13 -134 -14 -18
-15 -17 -10 16 9 51 -11 148 -41 200 -15 27 -25 58 -24 78 1 18 -12 82 -30
143 -24 86 -30 120 -24 157 12 87 20 90 26 12 4 -41 11 -91 17 -110z m-83 57
c-6 -44 -2 -64 25 -131 17 -44 30 -87 28 -98 -3 -17 -5 -17 -25 -3 -13 9 -23
26 -23 38 0 12 -11 57 -25 100 -29 91 -31 110 -9 131 28 29 36 19 29 -37z
m-115 -12 c-6 -27 -5 -50 5 -79 16 -46 12 -58 -10 -30 -12 14 -15 35 -11 76 4
52 13 84 21 76 2 -2 0 -21 -5 -43z m47 13 c-2 -18 4 -60 14 -93 22 -70 23 -88
7 -83 -15 5 -46 93 -47 133 -1 40 9 75 21 75 6 0 8 -14 5 -32z m893 -352 c6
-9 9 -20 5 -26 -3 -5 1 -10 9 -10 9 0 19 -12 22 -27 4 -15 14 -34 21 -42 8 -7
12 -20 9 -27 -3 -8 1 -14 9 -14 18 0 20 -21 4 -37 -8 -8 -5 -13 10 -18 20 -6
20 -7 4 -23 -16 -16 -15 -17 3 -21 28 -5 35 -23 16 -38 -15 -11 -15 -12 6 -13
12 0 22 -2 22 -4 0 -2 3 -12 6 -20 4 -12 2 -15 -9 -10 -8 3 -18 1 -22 -5 -4
-7 3 -11 18 -11 16 0 26 -7 30 -19 3 -12 -1 -18 -11 -17 -8 0 -17 -5 -19 -11
-3 -8 5 -13 20 -13 20 0 27 -8 40 -46 12 -37 12 -44 1 -40 -7 3 -16 1 -19 -4
-3 -5 5 -10 17 -12 12 -2 23 -9 26 -16 2 -7 -2 -10 -11 -7 -7 3 -20 -2 -28
-11 -10 -13 -10 -16 -1 -10 19 11 62 -2 62 -19 0 -9 -6 -12 -15 -9 -8 4 -15 1
-15 -5 0 -6 9 -11 19 -11 10 0 21 -7 25 -15 3 -9 0 -15 -9 -15 -23 0 -17 -18
7 -22 12 -2 23 -9 26 -16 2 -7 -2 -10 -12 -6 -11 4 -16 1 -16 -10 0 -10 9 -16
24 -16 14 0 30 -10 40 -25 20 -30 20 -30 -39 -5 -86 37 -132 117 -180 310 -67
273 -77 305 -101 343 -24 37 -25 37 -91 37 -48 0 -72 5 -85 17 -10 9 -18 19
-18 23 0 3 42 7 94 8 72 2 96 -1 106 -12z m-1450 -377 c7 -28 10 -52 7 -55 -8
-8 -58 106 -52 117 12 18 33 -10 45 -62z m39 57 c15 -18 26 -86 14 -86 -5 0
-16 23 -24 50 -16 50 -12 63 10 36z m-94 -68 c26 -56 31 -78 16 -78 -12 0 -51
84 -51 110 0 32 9 24 35 -32z m-56 -14 c22 -36 29 -90 11 -79 -17 11 -52 86
-46 101 8 20 12 18 35 -22z m229 18 c7 -5 10 -16 6 -26 -4 -11 -1 -21 7 -27
11 -7 12 -12 2 -28 -11 -17 -10 -22 5 -30 15 -9 15 -13 3 -32 -11 -19 -11 -23
4 -31 31 -18 -2 -38 -62 -38 -44 0 -61 5 -85 25 -16 14 -40 25 -53 25 -13 0
-31 8 -40 17 -16 16 -16 17 4 25 11 4 21 11 21 16 0 5 14 7 30 4 25 -4 30 -1
30 17 0 13 5 19 14 15 7 -3 20 1 27 8 8 8 22 17 32 21 9 3 17 16 17 27 0 21
16 26 38 12z m-249 -140 c20 -26 44 -43 72 -51 23 -7 52 -23 65 -36 13 -13 24
-20 24 -15 0 6 16 10 35 10 35 0 35 0 35 -45 0 -29 5 -47 15 -53 9 -4 61 -53
116 -107 93 -93 218 -255 283 -368 l27 -47 -6 -153 c-4 -83 -13 -197 -20 -252
-25 -181 -30 -258 -15 -253 17 5 101 224 130 335 13 50 23 133 28 222 l7 141
45 -57 c24 -32 66 -81 92 -109 47 -50 48 -52 44 -105 -2 -30 -7 -62 -11 -72
-4 -10 -3 -29 3 -43 6 -13 9 -31 6 -39 -4 -8 -2 -21 4 -28 6 -6 12 -23 14 -37
3 -23 42 -53 98 -76 8 -3 24 -10 35 -14 11 -5 43 -7 70 -4 28 2 65 4 83 4 22
-1 32 4 32 15 0 8 7 15 15 15 8 0 15 -5 15 -11 0 -5 5 -7 10 -4 6 4 39 -7 74
-23 58 -27 64 -33 70 -67 4 -21 21 -67 38 -104 17 -36 33 -87 36 -113 l4 -47
42 29 c22 16 61 34 86 40 25 7 64 25 87 40 30 21 50 27 70 24 35 -7 99 5 87
15 -5 5 -49 16 -99 25 -97 19 -144 40 -332 148 -74 42 -138 72 -163 75 -36 5
-42 10 -59 49 -13 29 -27 45 -43 48 -41 8 -133 3 -140 -8 -4 -6 -17 -11 -30
-11 -19 0 -24 -6 -26 -37 -2 -27 -7 -35 -18 -31 -8 3 -14 16 -14 28 0 13 -5
27 -11 31 -6 3 -8 17 -4 31 3 14 1 31 -6 39 -9 11 -9 21 -1 38 6 13 6 29 2 36
-20 33 17 39 98 15 28 -9 64 -26 79 -39 15 -13 43 -27 61 -31 23 -5 40 -17 53
-40 29 -49 99 -59 99 -14 0 17 8 19 68 19 238 -1 423 -40 594 -126 48 -24 95
-44 104 -44 25 0 84 -65 84 -93 0 -38 -21 -88 -55 -133 -97 -126 -233 -279
-287 -323 -35 -28 -83 -70 -108 -93 -25 -24 -71 -67 -103 -96 -52 -49 -72 -72
-47 -57 6 3 10 4 10 1 0 -10 -167 -131 -229 -166 -36 -20 -110 -54 -164 -74
-120 -47 -178 -91 -251 -194 -53 -75 -187 -212 -208 -212 -5 0 -7 -8 -4 -18 5
-15 -5 -24 -48 -46 -90 -46 -153 -61 -251 -60 -93 1 -125 10 -207 61 -21 13
-38 20 -38 16 0 -4 -15 8 -34 26 -45 44 -90 139 -104 221 -11 60 -10 65 10 87
13 14 38 25 67 29 53 8 81 20 81 35 0 7 -8 8 -17 4 -10 -3 -40 -11 -67 -16
-27 -5 -65 -18 -84 -29 l-34 -21 -100 57 c-91 51 -248 174 -248 193 0 5 33 -9
74 -30 42 -23 106 -46 151 -55 43 -9 106 -29 141 -45 119 -53 174 -59 174 -18
0 10 6 19 13 19 6 0 2 8 -10 18 -12 9 -25 29 -28 44 -5 21 -3 27 14 33 33 10
143 116 158 152 19 47 17 142 -5 183 -10 19 -39 71 -64 115 -26 44 -50 96 -53
115 -7 34 -7 35 12 18 11 -10 22 -18 24 -18 2 0 3 20 1 45 -2 25 -8 45 -14 45
-6 0 -8 47 -4 129 6 160 9 172 82 403 51 160 51 160 -65 391 -55 108 -116 239
-136 291 -33 82 -42 96 -76 115 -54 31 -105 94 -113 140 -3 21 -15 50 -27 64
-11 15 -16 27 -11 27 6 0 24 -17 41 -38z m-82 -87 c19 -8 44 -15 54 -15 11 0
19 -5 19 -11 0 -19 71 -100 98 -112 19 -9 41 -45 87 -142 34 -71 65 -138 69
-148 9 -27 -2 -39 -25 -27 -12 7 -19 7 -19 1 0 -12 36 -24 49 -17 5 3 16 -11
24 -32 16 -40 4 -59 -18 -28 -11 14 -14 14 -18 2 -8 -19 17 -39 41 -32 14 5
22 -2 35 -29 20 -41 20 -45 8 -45 -5 0 -12 8 -14 18 -4 13 -5 12 -6 -5 -1 -16
6 -24 22 -28 26 -7 67 -62 67 -91 0 -32 -45 -117 -80 -152 -77 -77 -200 -108
-359 -91 -79 8 -226 46 -191 49 8 1 2 7 -15 13 -38 15 -75 39 -75 49 0 5 10 8
23 8 12 0 28 4 36 9 10 6 5 11 -19 16 -25 6 -37 3 -53 -13 l-20 -21 32 -30 31
-29 -27 8 c-16 5 -62 19 -103 31 -92 27 -157 59 -189 93 -23 24 -23 26 -5 26
18 1 18 1 2 14 -10 7 -18 19 -18 26 0 12 19 12 130 -5 l35 -5 -35 13 c-42 16
-54 47 -18 47 13 0 48 -7 78 -15 66 -18 70 -18 70 -5 0 6 -8 10 -18 10 -10 0
-27 7 -38 15 -16 13 -17 16 -4 25 20 13 76 13 102 -1 27 -14 35 -3 14 20 -19
20 -11 32 35 50 23 9 23 10 -8 10 -30 1 -63 -20 -63 -40 0 -5 -16 -9 -36 -9
-42 0 -74 -15 -74 -35 0 -11 -11 -15 -45 -13 -25 0 -51 -4 -57 -10 -30 -30
-132 0 -157 46 -13 24 1 32 45 26 l29 -4 -34 16 c-32 14 -35 14 -55 -5 l-22
-21 -28 29 c-28 29 -28 30 -5 24 20 -6 19 -3 -11 24 -19 17 -30 35 -26 41 13
22 55 13 82 -17 26 -29 80 -58 90 -48 3 3 -9 13 -26 23 -36 22 -37 52 -1 70
25 13 65 2 100 -28 9 -8 25 -17 34 -21 16 -6 16 -5 0 19 -14 22 -14 27 -2 35
8 5 20 9 27 9 6 0 12 5 12 10 0 14 -15 13 -56 -5 -32 -13 -36 -13 -55 6 -27
27 -19 44 22 45 59 2 66 5 44 14 -24 10 -77 12 -99 4 -9 -3 -16 -16 -16 -29 0
-18 -7 -24 -32 -28 -18 -3 -55 -11 -83 -17 -68 -16 -87 -15 -108 11 -24 29
-17 43 24 50 37 6 38 6 -59 40 -72 25 -97 54 -60 68 13 4 30 11 38 14 8 3 1 6
-17 6 -31 1 -63 -20 -63 -41 0 -6 7 -20 17 -30 15 -17 15 -18 -9 -18 -32 0
-45 -28 -23 -49 13 -14 15 -14 15 1 0 18 28 25 73 19 21 -2 27 -9 27 -27 0
-15 16 -39 41 -64 23 -22 39 -40 36 -40 -3 0 -28 12 -56 26 -28 14 -77 34
-107 45 -31 10 -63 24 -71 30 -7 7 -16 9 -19 6 -13 -13 7 -38 43 -53 156 -68
189 -89 267 -168 80 -82 154 -174 236 -295 25 -37 61 -89 81 -116 19 -28 58
-90 85 -140 27 -50 74 -116 104 -147 51 -53 60 -58 99 -58 37 0 49 5 80 38 20
21 61 65 91 96 49 52 175 147 215 162 12 5 15 -4 15 -44 0 -54 -8 -62 -62 -62
-48 0 -108 -41 -182 -124 -94 -106 -59 -99 54 10 54 53 110 84 150 84 17 0 20
-6 20 -40 0 -45 -18 -61 -87 -79 -23 -7 -64 -28 -90 -48 -26 -21 -66 -40 -88
-45 -36 -6 -34 -7 15 -4 42 2 67 10 104 34 28 18 63 32 78 32 32 0 31 2 17
-55 -10 -38 -16 -46 -52 -60 -31 -12 -56 -15 -106 -9 -82 8 -72 -8 16 -26 34
-7 69 -20 76 -29 17 -18 32 -140 22 -171 -6 -20 -7 -20 -37 -3 -17 10 -46 43
-65 73 -41 64 -70 98 -98 113 -12 6 -6 -6 16 -30 20 -22 46 -61 59 -87 13 -25
45 -66 72 -91 48 -45 51 -51 40 -93 l-7 -23 -46 30 c-35 22 -56 47 -87 102
-23 41 -55 90 -71 109 -26 29 -21 16 29 -85 54 -109 107 -185 130 -185 24 0
38 -31 30 -61 -5 -18 -11 -33 -13 -35 -2 -2 -40 32 -84 75 -88 85 -117 130
-128 201 -9 59 -40 125 -68 142 -28 18 -141 63 -237 95 -111 36 -269 123 -465
253 -149 99 -227 163 -373 305 -231 223 -313 352 -315 495 -1 67 2 82 31 136
53 98 133 154 279 196 71 21 99 23 298 23 225 0 330 -12 537 -61 54 -13 74
-14 103 -4 52 17 91 54 110 105 16 41 20 44 59 48 84 7 97 7 133 -8z m-2263
-247 c30 -9 62 -34 119 -92 l78 -80 -60 -57 c-126 -119 -226 -132 -319 -40
-46 47 -55 126 -22 191 20 39 39 55 95 77 40 15 59 15 109 1z m6109 -32 c138
-58 219 -234 173 -378 -32 -97 -154 -198 -240 -198 -50 0 -140 53 -249 148
l-99 84 33 34 33 34 48 -55 c27 -30 81 -77 120 -105 61 -42 79 -50 118 -50 93
0 167 80 178 191 9 96 -72 204 -167 222 -71 14 -152 -31 -286 -157 -33 -31
-61 -56 -64 -56 -2 0 -88 -84 -192 -187 -103 -104 -240 -235 -304 -293 -64
-58 -235 -224 -380 -370 -293 -294 -669 -665 -821 -809 -54 -52 -153 -146
-219 -210 -379 -367 -676 -653 -718 -691 l-48 -44 -30 30 -30 30 88 85 c133
128 323 310 468 450 226 218 564 535 645 606 25 21 117 112 205 202 88 91 192
193 230 229 39 36 177 171 307 301 263 262 571 560 663 642 33 29 103 94 155
144 97 93 164 145 223 170 41 18 119 19 160 1z m2 -136 c43 -27 63 -59 75
-119 16 -84 -15 -146 -90 -178 -47 -20 -90 -18 -137 8 -44 24 -173 148 -173
165 0 13 100 96 160 133 43 27 113 23 165 -9z m-5689 -82 c28 -29 71 -77 97
-106 26 -30 172 -183 324 -340 292 -301 543 -566 634 -667 30 -33 138 -145
240 -250 103 -104 199 -203 214 -220 27 -31 134 -141 475 -491 603 -619 763
-792 807 -878 20 -38 20 -174 0 -212 -70 -134 -183 -194 -323 -172 -72 11
-122 37 -167 87 -121 134 -110 274 35 424 38 40 76 82 85 95 20 29 34 28 69
-9 25 -27 27 -32 14 -42 -9 -7 -49 -48 -89 -91 -84 -91 -114 -151 -105 -205
16 -97 40 -129 132 -176 51 -27 56 -27 110 -15 105 23 175 106 176 209 1 104
-26 142 -318 443 -144 148 -306 318 -360 376 -55 59 -197 204 -315 323 -119
118 -277 280 -351 359 -74 80 -237 248 -361 375 -124 126 -272 282 -330 345
-57 63 -237 250 -400 415 -270 273 -349 357 -388 408 -12 15 -11 21 9 42 13
14 26 25 30 25 3 0 28 -24 56 -52z m1249 -209 c11 -17 -1 -21 -15 -4 -8 9 -8
15 -2 15 6 0 14 -5 17 -11z m2365 -20 c105 -33 427 -99 484 -99 4 0 5 -8 2
-17 -6 -17 -5 -17 8 0 18 24 63 22 76 -3 6 -11 15 -18 21 -15 5 4 7 11 4 16
-4 5 11 9 32 9 21 0 61 3 90 6 49 6 52 6 46 -15 -4 -14 -1 -21 9 -21 16 0 51
34 43 41 -2 3 28 13 68 23 39 9 100 32 135 51 58 33 62 33 62 14 0 -34 -31
-89 -65 -115 -66 -50 -137 -67 -290 -68 -77 0 -174 5 -215 12 -143 25 -590
175 -590 198 0 7 13 4 80 -17z m800 -93 c0 -3 -4 -8 -10 -11 -5 -3 -10 -1 -10
4 0 6 5 11 10 11 6 0 10 -2 10 -4z m-1330 -298 c0 -21 -4 -38 -10 -38 -19 0
-39 108 -23 124 12 11 32 -44 33 -86z m50 34 c11 -33 12 -44 2 -54 -17 -17
-28 -1 -36 55 -7 61 12 60 34 -1z m60 8 c20 -39 19 -67 -1 -54 -10 6 -39 70
-39 85 0 22 21 5 40 -31z m-171 -40 c0 -24 0 -24 -14 -6 -8 11 -15 34 -15 50
l1 31 14 -25 c8 -14 14 -36 14 -50z m-891 -1033 c15 -29 28 -55 30 -59 4 -9
-70 15 -155 50 -39 17 -98 36 -130 44 l-58 13 75 5 c41 3 105 4 143 2 l68 -4
27 -51z m466 -1207 c101 -118 121 -207 64 -286 -60 -85 -139 -111 -220 -74
-87 39 -120 129 -80 220 22 51 158 203 177 198 7 -2 33 -28 59 -58z"/>
<path d="M3521 6634 c-25 -32 -37 -104 -22 -133 28 -51 122 -68 159 -28 37 39
43 79 21 125 -33 66 -119 86 -158 36z m121 -31 c24 -21 23 -68 -2 -93 -29 -29
-90 -23 -107 10 -33 65 55 132 109 83z"/>
<path d="M3485 5426 c-28 -12 -23 -13 59 -13 78 0 87 2 71 13 -24 17 -91 17
-130 0z"/>
<path d="M3480 5332 c0 -4 21 -13 46 -20 35 -10 50 -10 60 -1 8 7 12 14 10 17
-9 8 -116 13 -116 4z"/>
<path d="M3563 5143 c-32 -6 -29 -23 5 -24 26 0 26 -1 5 -9 -31 -13 -29 -24 2
-16 14 4 34 2 45 -4 22 -12 27 -1 8 19 -11 11 -9 13 8 9 12 -3 27 -2 34 2 12
7 -1 12 -70 24 -8 2 -25 1 -37 -1z"/>
<path d="M3444 4994 c-18 -14 -18 -15 4 -4 12 6 22 13 22 15 0 8 -5 6 -26 -11z"/>
<path d="M3435 4955 c-16 -14 -25 -25 -20 -25 6 0 24 11 40 25 17 13 26 24 20
24 -5 0 -23 -11 -40 -24z"/>
<path d="M3425 4905 c-16 -14 -25 -25 -20 -25 6 1 24 12 40 25 17 14 26 25 20
25 -5 -1 -23 -12 -40 -25z"/>
<path d="M3423 4854 l-28 -26 33 22 c29 20 39 30 28 30 -3 0 -18 -12 -33 -26z"/>
<path d="M3428 4813 c-21 -14 -38 -30 -38 -35 0 -11 26 3 65 36 39 33 21 32
-27 -1z"/>
<path d="M3435 4774 l-30 -25 32 15 c17 9 35 20 38 26 11 18 -10 10 -40 -16z"/>
<path d="M3471 4759 c-13 -10 -19 -19 -14 -19 13 0 49 27 43 33 -3 3 -16 -3
-29 -14z"/>
<path d="M2578 4643 c7 -3 16 -2 19 1 4 3 -2 6 -13 5 -11 0 -14 -3 -6 -6z"/>
<path d="M2536 4611 c-3 -4 6 -7 20 -5 35 3 43 14 11 14 -14 0 -28 -4 -31 -9z"/>
<path d="M2758 4609 c-23 -13 -25 -74 -2 -83 26 -10 40 -7 62 13 28 24 28 46
0 65 -26 18 -36 19 -60 5z"/>
<path d="M2480 4580 c-11 -7 -2 -10 32 -10 26 0 50 5 53 10 8 13 -65 13 -85 0z"/>
<path d="M3736 4543 c-6 -14 -5 -15 5 -6 7 7 10 15 7 18 -3 3 -9 -2 -12 -12z"/>
<path d="M2455 4540 c-44 -5 -47 -7 -24 -14 35 -10 81 -4 87 12 2 6 0 11 -5
10 -4 0 -30 -4 -58 -8z"/>
<path d="M3729 4484 c-22 -25 -22 -26 -3 -16 12 6 24 18 28 27 8 21 3 19 -25
-11z"/>
<path d="M2370 4490 c-21 -7 -19 -8 15 -8 22 0 49 3 60 8 16 7 13 9 -15 8 -19
0 -46 -4 -60 -8z"/>
<path d="M3750 4457 c-8 -7 -22 -21 -30 -32 -8 -11 0 -7 18 9 29 27 37 37 30
36 -2 0 -10 -6 -18 -13z"/>
<path d="M2322 4452 c-29 -2 -50 -7 -47 -12 5 -8 95 -3 104 6 8 8 -4 9 -57 6z"/>
<path d="M3742 4400 c-6 -11 -12 -22 -12 -25 0 -11 20 6 30 26 14 25 -2 25
-18 -1z"/>
<path d="M2240 4400 c-22 -5 -27 -8 -15 -10 31 -4 68 1 85 11 18 10 -17 10
-70 -1z"/>
<path d="M3353 4383 c-15 -5 -17 -51 -4 -71 11 -18 51 -12 64 10 8 12 7 24 -1
42 -11 25 -31 31 -59 19z"/>
<path d="M2193 4360 c-24 -3 -46 -9 -49 -13 -9 -9 53 -7 86 2 37 10 11 18 -37
11z"/>
<path d="M3732 4329 c-13 -16 -21 -29 -17 -29 6 0 55 50 55 56 0 12 -18 -1
-38 -27z"/>
<path d="M2135 4305 l-50 -13 41 -1 c22 0 49 6 60 14 23 17 15 17 -51 0z"/>
<path d="M3732 4267 c-38 -39 -43 -61 -6 -26 24 22 50 59 41 59 -2 0 -17 -15
-35 -33z"/>
<path d="M2105 4260 c-15 -7 -10 -9 23 -9 23 -1 42 4 42 9 0 12 -37 12 -65 0z"/>
<path d="M2160 4230 c0 -5 5 -10 10 -10 6 0 10 5 10 10 0 6 -4 10 -10 10 -5 0
-10 -4 -10 -10z"/>
<path d="M3717 4192 c-20 -21 -37 -42 -37 -46 0 -21 89 55 90 77 0 16 -18 5
-53 -31z"/>
<path d="M3250 4189 c0 -5 5 -7 10 -4 6 3 10 8 10 11 0 2 -4 4 -10 4 -5 0 -10
-5 -10 -11z"/>
<path d="M3270 4170 c-12 -8 -11 -10 8 -10 12 0 22 5 22 10 0 13 -11 13 -30 0z"/>
<path d="M3317 4159 c-22 -11 -37 -23 -34 -26 7 -7 77 27 77 38 0 11 2 12 -43
-12z"/>
<path d="M3331 4122 c-70 -39 -68 -57 3 -23 41 20 90 62 70 60 -5 0 -38 -17
-73 -37z"/>
<path d="M3730 4139 c-14 -12 -34 -27 -44 -35 -11 -7 -17 -16 -14 -20 4 -3 26
12 50 35 45 43 50 55 8 20z"/>
<path d="M2015 4120 c-3 -5 3 -10 14 -10 12 0 21 5 21 10 0 6 -6 10 -14 10 -8
0 -18 -4 -21 -10z"/>
<path d="M2080 4113 c-33 -6 -51 -23 -24 -23 11 0 29 7 40 15 10 8 17 14 14
13 -3 0 -16 -3 -30 -5z"/>
<path d="M2132 4096 c-18 -6 -31 -14 -27 -17 9 -10 53 2 66 17 14 17 5 17 -39
0z"/>
<path d="M2213 4093 c-24 -8 -43 -19 -43 -24 0 -11 6 -11 53 2 21 5 37 16 37
24 0 8 -1 15 -2 14 -2 0 -22 -7 -45 -16z"/>
<path d="M2293 4084 c-18 -8 -33 -19 -33 -24 0 -8 73 21 89 36 10 9 -27 1 -56
-12z"/>
<path d="M2363 4085 c-18 -8 -33 -16 -33 -18 0 -2 34 -4 75 -4 60 -1 80 3 98
18 22 19 22 19 -15 4 -33 -13 -37 -13 -32 0 5 13 1 13 -32 -1 -35 -15 -37 -15
-25 0 16 19 6 20 -36 1z"/>
<path d="M2545 4080 c-36 -17 -37 -19 -14 -19 14 -1 34 8 44 19 21 24 21 24
-30 0z"/>
<path d="M2615 4080 c-16 -11 -25 -20 -19 -20 11 0 64 39 54 40 -3 0 -18 -9
-35 -20z"/>
<path d="M2675 4080 c-20 -13 -25 -20 -13 -20 15 0 48 25 48 36 0 6 -3 5 -35
-16z"/>
<path d="M2729 4080 c-20 -16 -21 -19 -7 -20 10 0 22 9 28 20 13 25 8 25 -21
0z"/>
<path d="M2775 4079 c-4 -6 -5 -13 -2 -16 7 -7 27 6 27 18 0 12 -17 12 -25 -2z"/>
<path d="M3310 4062 c-30 -14 -49 -27 -43 -29 17 -6 120 41 108 49 -6 3 -35
-6 -65 -20z"/>
<path d="M3694 4055 c-21 -20 -30 -32 -19 -26 20 9 73 61 63 61 -2 0 -22 -16
-44 -35z"/>
<path d="M2820 4070 c0 -5 5 -10 10 -10 6 0 10 5 10 10 0 6 -4 10 -10 10 -5 0
-10 -4 -10 -10z"/>
<path d="M3695 3995 c-53 -49 -53 -61 1 -20 27 21 64 66 52 65 -2 -1 -25 -21
-53 -45z"/>
<path d="M3271 3999 c-24 -11 -42 -22 -39 -25 8 -7 88 26 88 37 0 5 -1 9 -2 8
-2 0 -23 -9 -47 -20z"/>
<path d="M3701 3943 c-18 -18 -31 -36 -29 -39 7 -6 68 54 68 67 0 12 1 12 -39
-28z"/>
<path d="M3255 3950 c-22 -10 -32 -19 -23 -19 22 -1 68 20 68 31 0 4 -1 8 -2
7 -2 0 -21 -9 -43 -19z"/>
<path d="M3702 3887 c-38 -39 -43 -61 -6 -26 24 22 50 59 41 59 -2 0 -17 -15
-35 -33z"/>
<path d="M3255 3900 c-18 -8 -17 -9 8 -9 15 -1 27 4 27 9 0 12 -8 12 -35 0z"/>
<path d="M3700 3820 c-17 -22 -28 -40 -23 -40 11 0 66 70 60 76 -2 3 -19 -13
-37 -36z"/>
<path d="M3685 3748 c-38 -40 -39 -40 -7 -19 26 19 61 61 49 61 -1 0 -21 -19
-42 -42z"/>
<path d="M3710 3715 c-11 -13 -10 -14 4 -9 9 3 16 10 16 15 0 13 -6 11 -20 -6z"/>
<path d="M3730 3690 c0 -5 5 -10 10 -10 6 0 10 5 10 10 0 6 -4 10 -10 10 -5 0
-10 -4 -10 -10z"/>
<path d="M3765 3660 c-3 -5 -1 -10 4 -10 6 0 11 5 11 10 0 6 -2 10 -4 10 -3 0
-8 -4 -11 -10z"/>
<path d="M3630 3620 c0 -5 5 -10 10 -10 6 0 10 5 10 10 0 6 -4 10 -10 10 -5 0
-10 -4 -10 -10z"/>
<path d="M3660 3588 c-16 -7 -20 -12 -12 -15 8 -3 21 2 30 11 19 18 17 19 -18
4z"/>
<path d="M3695 3555 c-23 -10 -25 -14 -10 -14 21 -1 52 15 45 23 -3 2 -18 -2
-35 -9z"/>
<path d="M3735 3520 c-13 -6 -15 -9 -5 -9 8 0 22 4 30 9 18 12 2 12 -25 0z"/>
<path d="M3756 3481 c-20 -8 -11 -19 12 -15 6 1 17 2 22 3 15 2 12 21 -2 20
-7 0 -22 -4 -32 -8z"/>
<path d="M3788 3433 c6 -2 18 -2 25 0 6 3 1 5 -13 5 -14 0 -19 -2 -12 -5z"/>
<path d="M3815 3400 c-16 -7 -17 -9 -3 -9 9 -1 20 4 23 9 7 11 7 11 -20 0z"/>
<path d="M3845 3360 c-19 -8 -19 -9 3 -9 12 -1 22 4 22 9 0 6 -1 10 -2 9 -2 0
-12 -4 -23 -9z"/>
<path d="M3860 3326 c0 -9 30 -14 35 -6 4 6 -3 10 -14 10 -12 0 -21 -2 -21 -4z"/>
<path d="M3895 3280 c-3 -5 3 -10 14 -10 12 0 21 5 21 10 0 6 -6 10 -14 10 -8
0 -18 -4 -21 -10z"/>
<path d="M3925 3240 c-3 -5 3 -10 14 -10 12 0 21 5 21 10 0 6 -6 10 -14 10 -8
0 -18 -4 -21 -10z"/>
<path d="M3961 3201 c-7 -5 -9 -11 -4 -14 5 -3 15 -2 22 2 7 5 9 11 4 14 -5 3
-15 2 -22 -2z"/>
<path d="M4330 5003 c8 -3 24 -10 35 -16 18 -9 19 -9 6 6 -7 10 -23 17 -35 16
-14 0 -16 -2 -6 -6z"/>
<path d="M4395 4945 l30 -14 -30 5 c-24 5 -20 0 24 -25 53 -30 87 -34 46 -5
-11 7 -31 23 -43 34 -13 11 -31 20 -40 20 -10 -1 -5 -7 13 -15z"/>
<path d="M4485 4851 c17 -12 34 -21 40 -21 17 0 -19 28 -45 35 -23 6 -23 5 5
-14z"/>
<path d="M4525 4798 c11 -6 23 -16 27 -22 5 -7 8 -8 8 0 0 15 -22 34 -39 34
-12 -1 -11 -4 4 -12z"/>
<path d="M4660 4620 c0 -5 5 -10 10 -10 6 0 10 5 10 10 0 6 -4 10 -10 10 -5 0
-10 -4 -10 -10z"/>
<path d="M4838 4433 c6 -2 18 -2 25 0 6 3 1 5 -13 5 -14 0 -19 -2 -12 -5z"/>
<path d="M4878 4393 c6 -2 18 -2 25 0 6 3 1 5 -13 5 -14 0 -19 -2 -12 -5z"/>
<path d="M4903 4353 c9 -2 23 -2 30 0 6 3 -1 5 -18 5 -16 0 -22 -2 -12 -5z"/>
<path d="M4945 4320 c-18 -8 -17 -9 8 -9 16 -1 26 3 22 9 -3 6 -7 10 -8 9 -1
0 -11 -4 -22 -9z"/>
<path d="M4958 4283 c12 -2 30 -2 40 0 9 3 -1 5 -23 4 -22 0 -30 -2 -17 -4z"/>
<path d="M5015 4263 c-41 -10 -39 -23 4 -23 28 0 41 4 39 12 -5 14 -16 17 -43
11z"/>
<path d="M5023 4213 c-27 -10 -11 -18 32 -15 25 2 42 8 39 13 -5 9 -50 11 -71
2z"/>
<path d="M5085 4160 c-16 -7 -12 -9 18 -9 23 -1 36 3 32 9 -7 12 -23 12 -50 0z"/>
<path d="M4045 4130 c-7 -12 2 -12 30 0 19 8 19 9 -2 9 -12 1 -25 -3 -28 -9z"/>
<path d="M4111 4127 c-41 -20 -38 -39 3 -22 19 8 45 15 56 15 12 0 18 5 15 10
-8 14 -45 12 -74 -3z"/>
<path d="M5091 4121 c-9 -6 2 -10 38 -12 31 -3 50 0 48 6 -5 13 -68 18 -86 6z"/>
<path d="M3961 4106 c-10 -12 -8 -13 9 -9 25 7 37 23 17 23 -8 0 -20 -6 -26
-14z"/>
<path d="M4183 4103 c-13 -2 -23 -9 -23 -14 0 -6 -4 -8 -9 -5 -5 3 -14 -1 -21
-9 -17 -20 5 -20 40 0 14 8 40 14 58 15 17 0 32 5 32 10 0 10 -34 11 -77 3z"/>
<path d="M3964 4083 c-21 -8 -47 -17 -56 -20 -10 -3 -18 -12 -18 -19 0 -17 12
-18 27 -3 6 6 36 18 68 28 41 13 52 19 38 23 -11 3 -38 -1 -59 -9z"/>
<path d="M5144 4081 c7 -11 76 -20 76 -10 0 10 -27 19 -56 19 -14 0 -23 -4
-20 -9z"/>
<path d="M4214 4054 c-18 -15 -18 -15 6 -10 14 3 42 6 63 6 20 0 37 5 37 10 0
16 -84 12 -106 -6z"/>
<path d="M5179 4039 c-6 -3 7 -9 29 -13 22 -3 49 -9 59 -13 15 -6 16 -4 5 9
-14 17 -75 28 -93 17z"/>
<path d="M3923 4018 c-24 -12 -43 -26 -43 -30 0 -5 12 -2 28 7 15 8 45 22 67
29 32 12 35 15 15 15 -14 0 -44 -9 -67 -21z"/>
<path d="M4264 4015 c-23 -18 -23 -18 46 0 l55 13 -41 1 c-22 1 -49 -6 -60
-14z"/>
<path d="M3910 3975 c-19 -14 -29 -25 -23 -25 7 0 15 5 19 11 3 6 20 17 38 25
17 7 24 13 15 14 -8 0 -30 -11 -49 -25z"/>
<path d="M4333 3993 c-13 -2 -23 -9 -23 -15 0 -6 10 -8 23 -4 12 3 37 6 55 6
20 0 31 4 27 10 -6 10 -40 11 -82 3z"/>
<path d="M5260 3983 c8 -2 29 -9 45 -14 28 -8 29 -8 11 6 -11 8 -31 15 -45 14
-15 0 -19 -3 -11 -6z"/>
<path d="M4370 3950 c-10 -7 4 -8 45 -4 33 4 62 8 64 10 10 9 -96 3 -109 -6z"/>
<path d="M3889 3931 c-35 -28 -20 -32 20 -4 19 13 27 23 19 23 -9 0 -26 -9
-39 -19z"/>
<path d="M5310 3935 c24 -8 46 -12 48 -10 7 7 -47 25 -71 24 -13 0 -4 -6 23
-14z"/>
<path d="M4415 3920 c-13 -6 10 -9 64 -9 46 -1 82 1 80 4 -9 8 -124 13 -144 5z"/>
<path d="M3890 3895 c-9 -11 -9 -15 -1 -15 7 0 9 -5 5 -12 -4 -8 -3 -10 2 -5
5 5 9 12 9 15 0 4 4 13 8 20 11 17 -8 15 -23 -3z"/>
<path d="M5352 3890 c42 -13 52 -21 37 -31 -10 -6 -9 -9 6 -14 11 -4 30 -11
43 -16 35 -14 46 -11 32 6 -7 8 -17 15 -23 15 -5 0 -20 11 -33 25 -16 17 -33
25 -56 24 -32 -1 -33 -1 -6 -9z"/>
<path d="M4494 3879 c-11 -5 9 -8 49 -8 37 -1 67 3 67 7 0 10 -91 11 -116 1z"/>
<path d="M4560 3840 c-19 -12 66 -12 95 0 15 6 7 9 -30 9 -27 0 -57 -4 -65 -9z"/>
<path d="M4650 3823 c-19 -3 -39 -9 -45 -15 -12 -12 81 -3 118 12 20 8 19 9
-8 8 -16 -1 -46 -3 -65 -5z"/>
<path d="M4720 3790 c-21 -7 -19 -8 15 -8 22 0 51 4 65 8 21 7 19 8 -15 8 -22
0 -51 -4 -65 -8z"/>
<path d="M5485 3775 c27 -13 51 -22 53 -20 7 7 -62 45 -82 45 -11 0 2 -11 29
-25z"/>
<path d="M4815 3765 c-25 -9 -32 -14 -19 -14 36 -2 84 11 78 20 -6 11 -8 11
-59 -6z"/>
<path d="M4860 3730 c-11 -7 -4 -10 27 -10 23 0 45 5 48 10 8 13 -55 13 -75 0z"/>
<path d="M5490 3730 c0 -5 7 -10 15 -10 9 0 29 -7 45 -15 39 -20 39 -5 1 18
-32 19 -61 22 -61 7z"/>
<path d="M3880 3704 c0 -8 5 -12 10 -9 6 4 8 11 5 16 -9 14 -15 11 -15 -7z"/>
<path d="M4985 3710 c-3 -5 -18 -10 -33 -10 -15 0 -34 -5 -42 -10 -18 -12 64
-13 93 -1 17 6 17 8 4 19 -10 9 -17 10 -22 2z"/>
<path d="M5530 3680 c0 -5 9 -10 21 -10 11 0 29 -5 40 -10 10 -6 19 -8 19 -5
0 6 -63 35 -75 35 -3 0 -5 -4 -5 -10z"/>
<path d="M5023 3657 c-40 -10 -59 -27 -30 -27 23 0 86 21 92 30 7 12 -4 11
-62 -3z"/>
<path d="M3910 3630 c0 -5 4 -10 9 -10 6 0 13 5 16 10 3 6 -1 10 -9 10 -9 0
-16 -4 -16 -10z"/>
<path d="M5073 3627 c-24 -5 -43 -14 -43 -19 0 -10 41 -1 85 18 36 15 17 16
-42 1z"/>
<path d="M5575 3630 c-4 -6 -3 -16 3 -22 6 -6 12 -6 17 2 4 6 3 16 -3 22 -6 6
-12 6 -17 -2z"/>
<path d="M5145 3603 c-11 -3 -24 -9 -30 -15 -11 -11 40 -1 65 13 13 7 13 8 0
8 -8 -1 -24 -3 -35 -6z"/>
<path d="M3930 3589 c0 -5 5 -7 10 -4 6 3 10 8 10 11 0 2 -4 4 -10 4 -5 0 -10
-5 -10 -11z"/>
<path d="M5175 3570 c-7 -12 22 -12 50 0 17 7 15 9 -12 9 -17 1 -35 -3 -38 -9z"/>
<path d="M5268 3547 c-21 -6 -38 -14 -38 -19 0 -4 2 -8 5 -8 12 0 75 29 75 34
0 4 -1 5 -2 5 -2 -1 -20 -6 -40 -12z"/>
<path d="M3974 3526 c-10 -8 -16 -17 -13 -20 3 -3 14 3 24 14 21 23 17 26 -11
6z"/>
<path d="M5517 3534 c-7 -7 10 -48 34 -84 9 -14 21 -38 26 -55 9 -25 12 -27
18 -12 11 25 -2 65 -30 93 -14 14 -25 31 -25 39 0 16 -14 27 -23 19z"/>
<path d="M5390 3515 c-8 -9 -8 -15 -2 -15 12 0 26 19 19 26 -2 2 -10 -2 -17
-11z"/>
<path d="M3985 3499 c-11 -17 -2 -18 19 -3 17 12 17 14 4 14 -9 0 -20 -5 -23
-11z"/>
<path d="M4020 3466 c-7 -9 -8 -21 -3 -30 7 -12 11 -13 27 0 11 7 17 17 13 20
-4 4 -14 1 -23 -7 -16 -13 -16 -12 -5 9 13 25 9 29 -9 8z"/>
<path d="M4040 3395 c-7 -8 -8 -15 -2 -15 5 0 15 7 22 15 7 8 8 15 2 15 -5 0
-15 -7 -22 -15z"/>
<path d="M4066 3364 c-9 -9 -14 -19 -11 -22 3 -3 13 2 22 11 9 9 14 19 11 22
-3 3 -13 -2 -22 -11z"/>
<path d="M4180 3350 c-13 -9 -13 -10 0 -10 8 0 22 5 30 10 13 9 13 10 0 10 -8
0 -22 -5 -30 -10z"/>
<path d="M4294 3346 c-30 -23 -12 -27 21 -6 18 12 24 20 14 20 -8 0 -24 -6
-35 -14z"/>
<path d="M4180 3310 c-13 -8 -13 -10 2 -10 9 0 20 5 23 10 8 13 -5 13 -25 0z"/>
<path d="M4304 3310 c-21 -8 -42 -30 -29 -30 10 0 65 30 65 35 0 7 -11 5 -36
-5z"/>
<path d="M4094 3279 c-19 -22 -19 -22 3 -10 24 12 39 31 25 31 -5 0 -17 -10
-28 -21z"/>
<path d="M4290 3264 c-45 -38 -29 -42 22 -5 24 18 35 31 26 31 -9 0 -31 -12
-48 -26z"/>
<path d="M4127 3273 c-4 -3 -7 -11 -7 -17 0 -6 5 -5 12 2 6 6 9 14 7 17 -3 3
-9 2 -12 -2z"/>
<path d="M4295 3220 c-16 -16 -26 -32 -24 -34 6 -7 69 43 69 55 0 17 -16 9
-45 -21z"/>
<path d="M4180 3219 c0 -5 5 -7 10 -4 6 3 10 8 10 11 0 2 -4 4 -10 4 -5 0 -10
-5 -10 -11z"/>
<path d="M4295 3165 c-16 -13 -27 -26 -25 -29 3 -2 21 9 40 25 19 16 30 29 25
29 -6 -1 -23 -12 -40 -25z"/>
<path d="M4300 3125 c-13 -14 -19 -25 -13 -25 12 0 48 38 41 45 -2 3 -15 -6
-28 -20z"/>
<path d="M4309 3094 c-22 -25 -22 -26 -3 -16 12 6 24 18 28 27 8 21 3 19 -25
-11z"/>
<path d="M4650 4160 c0 -5 7 -10 16 -10 8 0 12 5 9 10 -3 6 -10 10 -16 10 -5
0 -9 -4 -9 -10z"/>
<path d="M3080 4065 c-8 -9 -8 -15 -2 -15 12 0 26 19 19 26 -2 2 -10 -2 -17
-11z"/>
<path d="M3110 3910 c0 -5 5 -10 11 -10 5 0 7 5 4 10 -3 6 -8 10 -11 10 -2 0
-4 -4 -4 -10z"/>
<path d="M3113 3873 c9 -2 25 -2 35 0 9 3 1 5 -18 5 -19 0 -27 -2 -17 -5z"/>
<path d="M3152 3831 c-10 -6 -7 -10 13 -15 30 -8 41 -3 30 13 -7 13 -25 14
-43 2z"/>
<path d="M3196 3781 c-3 -5 10 -11 29 -13 36 -4 47 5 19 16 -22 9 -42 7 -48
-3z"/>
<path d="M3245 3730 c-4 -6 11 -10 37 -10 31 0 39 3 28 10 -20 13 -57 13 -65
0z"/>
<path d="M3270 3681 c0 -5 9 -7 20 -4 11 3 20 7 20 9 0 2 -9 4 -20 4 -11 0
-20 -4 -20 -9z"/>
<path d="M3320 3679 c0 -5 9 -9 20 -9 11 0 20 2 20 4 0 2 -9 6 -20 9 -11 3
-20 1 -20 -4z"/>
<path d="M3316 3631 c-3 -5 14 -11 38 -13 35 -2 42 0 34 9 -12 15 -64 17 -72
4z"/>
<path d="M3385 3580 c11 -5 27 -9 35 -9 13 -1 13 0 0 9 -8 5 -24 9 -35 9 l-20
0 20 -9z"/>
<path d="M3396 3532 c-2 -4 14 -9 37 -9 30 -2 37 1 27 7 -18 12 -57 13 -64 2z"/>
<path d="M3455 3480 c28 -12 37 -12 30 0 -3 6 -16 10 -28 9 -21 0 -21 -1 -2
-9z"/>
<path d="M3460 3452 c0 -4 12 -9 28 -10 21 -1 23 0 12 8 -18 12 -40 13 -40 2z"/>
<path d="M3510 3410 c0 -5 5 -10 11 -10 5 0 7 5 4 10 -3 6 -8 10 -11 10 -2 0
-4 -4 -4 -10z"/>
<path d="M3526 3361 c-10 -11 -16 -26 -14 -33 3 -8 11 -2 23 15 21 33 15 45
-9 18z"/>
<path d="M3560 3342 c0 -6 -14 -27 -31 -47 -32 -36 -32 -42 0 -25 20 10 47 67
37 77 -3 3 -6 1 -6 -5z"/>
<path d="M3521 3226 c-19 -20 -31 -39 -27 -43 9 -9 69 52 65 66 -3 7 -19 -4
-38 -23z"/>
<path d="M3507 3145 c-15 -19 -25 -35 -21 -35 15 0 64 43 64 56 0 23 -13 16
-43 -21z"/>
<path d="M3514 3095 c-21 -19 -34 -35 -29 -35 11 0 75 55 75 64 0 10 -6 7 -46
-29z"/>
<path d="M3508 3041 c-44 -34 -58 -51 -40 -51 11 0 98 77 92 83 -3 2 -26 -12
-52 -32z"/>
<path d="M3502 2984 c-12 -8 -27 -24 -33 -36 -11 -20 -11 -20 21 -2 31 18 59
54 43 54 -5 0 -19 -7 -31 -16z"/>
<path d="M4368 2983 c-10 -2 -18 -11 -18 -19 0 -12 4 -12 20 -4 11 6 20 15 20
20 0 6 -1 9 -2 9 -2 -1 -11 -3 -20 -6z"/>
<path d="M4428 2969 c-30 -17 -20 -28 12 -13 17 9 30 17 30 20 0 7 -25 4 -42
-7z"/>
<path d="M4472 2947 c-12 -6 -22 -14 -22 -20 0 -5 11 -2 25 7 32 21 52 22 35
1 -20 -24 -9 -24 33 0 l37 22 -43 0 c-23 0 -53 -5 -65 -10z"/>
<path d="M4587 2934 c-16 -9 -27 -17 -25 -20 5 -5 68 25 68 32 0 7 -15 3 -43
-12z"/>
<path d="M4643 2930 c-51 -31 -39 -41 17 -14 28 13 50 26 50 29 0 12 -37 3
-67 -15z"/>
<path d="M3476 2911 c-16 -16 -27 -34 -24 -41 2 -6 21 7 43 30 24 25 33 40 24
40 -8 0 -28 -13 -43 -29z"/>
<path d="M3813 2890 c-24 -21 -43 -46 -43 -55 0 -23 15 -18 28 9 8 17 17 23
30 19 13 -3 21 1 24 14 3 10 9 26 13 36 11 27 -7 20 -52 -23z"/>
<path d="M4724 2923 c-12 -2 -30 -13 -40 -24 -18 -20 -17 -20 12 -4 16 8 34
15 41 15 6 0 15 5 18 10 3 6 3 9 -2 9 -4 -1 -18 -4 -29 -6z"/>
<path d="M4762 2895 c-17 -8 -32 -19 -32 -24 0 -8 65 12 78 24 12 11 -19 11
-46 0z"/>
<path d="M4813 2875 c-37 -16 -45 -30 -10 -19 26 8 66 34 52 34 -6 -1 -25 -7
-42 -15z"/>
<path d="M3486 2861 c-30 -33 -12 -44 19 -11 20 21 24 30 13 30 -8 0 -23 -9
-32 -19z"/>
<path d="M4875 2860 c-19 -7 -54 -40 -43 -40 9 0 88 41 88 45 0 7 -22 5 -45
-5z"/>
<path d="M4266 2825 c-11 -8 -17 -17 -14 -20 2 -3 13 4 23 15 21 23 18 25 -9
5z"/>
<path d="M4900 2824 l-25 -15 25 7 c14 3 32 10 40 15 13 7 13 8 0 8 -8 0 -26
-6 -40 -15z"/>
<path d="M3352 2810 c0 -14 2 -19 5 -12 2 6 2 18 0 25 -3 6 -5 1 -5 -13z"/>
<path d="M3320 2805 c-7 -9 -10 -18 -7 -21 3 -3 10 4 17 15 13 25 8 27 -10 6z"/>
<path d="M3970 2811 c0 -6 5 -13 10 -16 6 -3 10 1 10 9 0 9 -4 16 -10 16 -5 0
-10 -4 -10 -9z"/>
<path d="M4281 2789 c-33 -43 -21 -45 19 -4 20 21 28 35 19 34 -7 0 -25 -14
-38 -30z"/>
<path d="M4951 2809 c-13 -5 -22 -12 -19 -14 6 -6 58 12 58 20 0 7 -11 5 -39
-6z"/>
<path d="M3484 2796 c-3 -8 4 -24 15 -35 16 -16 21 -17 21 -6 0 8 -5 15 -11
15 -6 0 -8 9 -4 20 7 23 -12 28 -21 6z"/>
<path d="M3940 2796 c-6 -9 -10 -21 -8 -28 3 -8 9 -4 17 10 15 28 9 39 -9 18z"/>
<path d="M4316 2764 c-21 -25 -36 -47 -34 -49 7 -7 78 66 78 81 0 19 0 19 -44
-32z"/>
<path d="M5001 2794 c-19 -8 -32 -17 -29 -19 7 -7 55 11 63 24 8 14 8 13 -34
-5z"/>
<path d="M3688 2783 c-9 -10 -18 -25 -21 -33 -3 -9 -6 -10 -6 -2 -2 34 -42 -9
-55 -60 -4 -17 -2 -28 4 -28 5 0 10 9 10 20 0 11 5 29 12 39 10 17 14 17 22 5
9 -11 15 -5 33 31 24 49 24 54 1 28z"/>
<path d="M5045 2770 c-3 -5 -1 -10 4 -10 6 0 11 5 11 10 0 6 -2 10 -4 10 -3 0
-8 -4 -11 -10z"/>
<path d="M4157 2749 c4 -13 8 -18 11 -10 2 7 -1 18 -6 23 -8 8 -9 4 -5 -13z"/>
<path d="M3816 2751 c-3 -4 -10 -20 -15 -35 -13 -33 2 -34 17 -1 7 16 17 23
27 19 10 -4 15 0 15 10 0 17 -35 23 -44 7z"/>
<path d="M4337 2722 c-32 -33 -36 -54 -6 -26 20 18 44 54 36 54 -2 0 -15 -13
-30 -28z"/>
<path d="M3403 2710 c-24 -30 -30 -60 -12 -60 6 0 9 7 6 15 -8 18 13 32 23 15
5 -7 9 2 12 24 5 43 0 44 -29 6z"/>
<path d="M4226 2680 c1 -34 5 -64 8 -67 3 -4 6 1 6 10 0 10 4 17 8 17 13 0 4
72 -11 87 -12 12 -13 5 -11 -47z"/>
<path d="M5070 2730 c-13 -8 -12 -10 3 -10 9 0 17 5 17 10 0 12 -1 12 -20 0z"/>
<path d="M4369 2702 c-24 -28 -31 -42 -21 -42 11 0 46 49 40 56 -2 2 -11 -5
-19 -14z"/>
<path d="M5085 2699 c-4 -5 -18 -15 -32 -20 -14 -5 -23 -12 -20 -16 10 -10 67
18 67 33 0 17 -6 18 -15 3z"/>
<path d="M3277 2670 c-9 -11 -17 -33 -16 -48 0 -15 3 -20 6 -12 2 8 7 22 9 30
5 13 6 13 14 0 7 -11 10 -6 10 18 0 38 0 38 -23 12z"/>
<path d="M4390 2658 c-12 -22 -12 -22 6 -6 10 10 15 20 12 24 -4 3 -12 -5 -18
-18z"/>
<path d="M4125 2630 c3 -5 8 -10 11 -10 2 0 4 5 4 10 0 6 -5 10 -11 10 -5 0
-7 -4 -4 -10z"/>
<path d="M4271 2610 c0 -33 1 -34 11 -12 8 17 8 26 0 34 -9 9 -12 4 -11 -22z"/>
<path d="M4340 2615 c0 -41 10 -75 22 -75 6 0 7 17 3 43 -9 52 -25 73 -25 32z"/>
<path d="M4410 2625 c-7 -9 -8 -15 -2 -15 5 0 12 7 16 15 3 8 4 15 2 15 -2 0
-9 -7 -16 -15z"/>
<path d="M5000 2620 c-30 -17 -32 -19 -12 -20 22 0 82 25 82 35 0 11 -37 3
-70 -15z"/>
<path d="M3476 2608 c-18 -25 -21 -64 -7 -72 5 -4 7 3 4 13 -3 10 1 29 7 41
10 18 14 20 21 9 6 -10 9 -8 9 9 0 28 -14 28 -34 0z"/>
<path d="M3984 2596 c-3 -9 -12 -16 -20 -16 -21 0 -54 -42 -54 -69 0 -23 3
-20 21 17 20 40 48 57 50 30 0 -7 5 0 10 16 9 32 4 50 -7 22z"/>
<path d="M4437 2603 c-4 -3 -7 -11 -7 -17 0 -6 5 -5 12 2 6 6 9 14 7 17 -3 3
-9 2 -12 -2z"/>
<path d="M5020 2593 c-57 -22 -102 -44 -98 -48 8 -8 96 25 109 41 12 15 12 15
-11 7z"/>
<path d="M3636 2536 c-28 -26 -36 -41 -36 -67 l0 -34 21 45 c15 34 22 41 29
30 5 -8 11 -12 13 -10 6 7 17 70 12 70 -2 0 -20 -15 -39 -34z"/>
<path d="M4417 2545 c9 -37 9 -58 -1 -115 -5 -31 -4 -40 3 -30 15 21 27 3 13
-20 -6 -10 -8 -22 -3 -25 12 -7 33 54 24 68 -4 6 -6 32 -4 57 2 35 -3 52 -19
71 l-20 24 7 -30z"/>
<path d="M4119 2493 c-9 -27 -20 -57 -24 -68 -8 -20 -8 -20 13 -1 25 22 26 19
12 -21 -9 -24 -8 -26 3 -11 12 15 23 148 14 148 -2 0 -10 -21 -18 -47z"/>
<path d="M4922 2516 c-34 -12 -60 -25 -57 -28 7 -6 105 29 120 43 11 11 13 12
-63 -15z"/>
<path d="M4260 2470 c0 -12 -7 -32 -16 -46 -19 -29 -12 -43 12 -23 15 12 16
11 9 -20 -5 -23 -4 -31 4 -27 13 9 15 66 2 66 -6 0 -6 12 0 32 11 40 11 38 -1
38 -5 0 -10 -9 -10 -20z"/>
<path d="M4865 2464 c-49 -18 -71 -37 -28 -25 34 10 73 29 73 36 0 3 -1 5 -2
4 -2 0 -21 -7 -43 -15z"/>
<path d="M3352 2454 c-10 -11 -10 -23 -2 -54 6 -21 16 -42 22 -46 8 -5 9 -1 3
12 -4 10 -10 33 -12 49 -3 23 -2 27 6 15 9 -12 11 -11 11 7 0 28 -11 35 -28
17z"/>
<path d="M4845 2420 c-11 -5 -32 -9 -47 -9 -18 -1 -28 -6 -28 -16 0 -17 35
-12 83 12 41 20 35 31 -8 13z"/>
<path d="M4500 2387 c0 -8 -9 -26 -20 -40 -22 -27 -25 -37 -12 -37 15 0 53 78
42 85 -5 3 -10 0 -10 -8z"/>
<path d="M3810 2358 c0 -7 -3 -23 -6 -36 -5 -17 -3 -21 9 -16 10 3 17 -1 20
-13 4 -15 5 -14 6 4 0 12 -3 24 -9 28 -5 3 -7 12 -4 19 3 8 1 17 -5 21 -6 3
-11 0 -11 -7z"/>
<path d="M4773 2359 c-18 -5 -33 -12 -33 -15 0 -8 63 6 75 17 11 11 1 10 -42
-2z"/>
<path d="M3736 2318 c-18 -31 -30 -82 -16 -73 5 3 10 13 10 21 0 8 7 28 15 44
18 35 12 40 -9 8z"/>
<path d="M4345 2284 c-31 -62 -43 -123 -18 -88 7 10 13 22 13 28 0 5 9 29 21
53 11 23 19 48 17 55 -2 6 -17 -15 -33 -48z"/>
<path d="M4505 2321 c4 -7 -5 -30 -20 -52 -36 -55 -24 -62 14 -8 32 44 35 59
11 67 -8 3 -10 0 -5 -7z"/>
<path d="M4730 2305 c0 -8 6 -15 14 -15 7 0 19 7 26 15 11 13 8 15 -14 15 -16
0 -26 -5 -26 -15z"/>
<path d="M3467 2247 c-19 -22 -27 -42 -26 -67 l0 -35 13 35 c6 19 17 34 23 33
9 -2 28 55 20 63 -1 2 -15 -11 -30 -29z"/>
<path d="M4240 2260 c-14 -11 -20 -20 -15 -19 13 0 50 28 44 33 -2 3 -15 -4
-29 -14z"/>
<path d="M3982 2224 c-13 -25 -21 -49 -18 -51 3 -3 -1 -18 -10 -34 -8 -16 -10
-29 -4 -29 16 0 41 46 35 63 -4 8 1 29 10 47 9 17 15 36 13 41 -2 6 -14 -11
-26 -37z"/>
<path d="M4169 2247 c-9 -12 -24 -35 -34 -52 l-19 -30 22 19 c12 11 24 17 27
14 3 -3 -1 -11 -10 -18 -8 -7 -15 -19 -15 -28 0 -12 4 -12 21 4 14 12 19 26
16 44 -3 13 -1 33 5 43 14 27 6 29 -13 4z"/>
<path d="M4615 2253 c-3 -10 -8 -36 -10 -58 -3 -31 -2 -36 6 -22 10 17 22 97
14 97 -1 0 -6 -8 -10 -17z"/>
<path d="M4669 2233 c-12 -15 -12 -16 2 -11 13 5 16 2 12 -13 -7 -24 3 -25 16
0 15 28 -11 48 -30 24z"/>
<path d="M4504 2205 c-1 -13 -15 -40 -30 -61 -32 -41 -42 -93 -14 -71 20 16
34 38 37 57 1 8 7 30 14 47 9 21 10 36 4 42 -7 7 -10 1 -11 -14z m-30 -100
c-4 -8 -11 -15 -16 -15 -6 0 -5 6 2 15 7 8 14 15 16 15 2 0 1 -7 -2 -15z"/>
<path d="M4397 2185 c-16 -20 -22 -35 -15 -35 6 0 -3 -15 -21 -34 -18 -19 -32
-39 -29 -46 6 -18 70 56 73 85 2 14 9 33 16 41 6 8 10 16 8 19 -3 2 -17 -11
-32 -30z"/>
<path d="M4611 2139 c-13 -11 -21 -23 -17 -26 4 -4 16 3 28 15 28 28 20 36
-11 11z"/>
<path d="M4515 2111 c-3 -11 -25 -37 -48 -57 -24 -21 -34 -34 -22 -30 16 5 15
3 -5 -14 l-25 -21 28 12 c15 7 27 18 27 25 0 7 9 19 21 28 33 22 53 56 41 68
-7 7 -12 3 -17 -11z"/>
<path d="M3472 2013 c-17 -19 -32 -42 -32 -51 1 -12 5 -10 15 8 7 14 17 24 20
22 7 -3 38 48 33 54 -2 1 -18 -13 -36 -33z"/>
<path d="M3996 2020 c-9 -17 -22 -30 -27 -30 -6 0 -8 -8 -4 -19 3 -10 -1 -24
-10 -31 -8 -7 -15 -17 -15 -23 0 -6 11 0 25 13 14 13 24 31 23 40 -1 8 6 28
16 43 10 15 17 30 14 32 -2 2 -12 -9 -22 -25z"/>
<path d="M3693 1991 c-29 -60 -29 -69 -2 -45 22 19 22 19 16 -8 -4 -14 -10
-34 -13 -45 -5 -17 -5 -17 10 1 10 12 15 40 15 82 0 35 -1 64 -2 64 -1 -1 -12
-22 -24 -49z"/>
<path d="M4182 2017 c-25 -26 -30 -46 -7 -27 23 19 18 -1 -7 -27 -12 -13 -16
-23 -10 -23 15 0 38 36 46 73 8 33 5 33 -22 4z"/>
<path d="M4091 1968 c-1 -9 -11 -24 -23 -32 -17 -12 -20 -18 -10 -28 9 -9 12
-9 12 2 0 7 7 21 16 31 9 10 14 24 11 31 -4 9 -6 7 -6 -4z"/>
<path d="M4286 1956 c-10 -15 -33 -34 -52 -42 -33 -14 -50 -32 -18 -20 8 3 12
2 9 -3 -3 -5 -22 -15 -43 -22 -39 -13 -85 -39 -79 -45 2 -3 30 7 62 21 61 27
150 105 143 126 -2 7 -12 0 -22 -15z"/>
<path d="M3790 1828 c0 -8 -7 -21 -16 -29 -8 -7 -13 -20 -11 -29 2 -10 0 -26
-6 -36 -9 -18 -9 -18 8 -2 25 23 47 90 35 102 -7 7 -10 4 -10 -6z"/>
<path d="M3990 1802 c0 -10 -11 -29 -25 -42 -13 -12 -22 -26 -20 -31 3 -4 1
-10 -5 -14 -5 -3 -10 -11 -10 -17 0 -6 9 -3 20 7 11 10 20 25 20 34 0 9 9 24
20 34 22 19 25 33 10 42 -5 3 -10 -2 -10 -13z"/>
<path d="M3920 1785 c-20 -24 -6 -28 15 -5 10 11 13 20 8 20 -6 0 -16 -7 -23
-15z"/>
<path d="M3324 1783 c-18 -2 -40 -14 -50 -26 l-19 -21 29 18 c16 10 31 14 35
9 3 -6 22 -2 46 8 42 19 34 21 -41 12z"/>
<path d="M2954 1762 c22 -26 45 -28 72 -7 18 14 18 14 -11 15 -16 0 -41 3 -55
7 -25 6 -25 6 -6 -15z"/>
<path d="M3440 1760 c0 -6 11 -8 25 -4 15 4 25 2 25 -5 0 -6 7 -8 16 -4 13 5
13 7 2 14 -18 12 -68 11 -68 -1z"/>
<path d="M3200 1682 c0 -14 26 -22 75 -22 36 0 50 -6 75 -30 18 -18 41 -30 56
-30 24 0 23 3 -22 40 -45 38 -53 41 -105 39 -31 -1 -61 1 -67 5 -7 4 -12 3
-12 -2z"/>
<path d="M3658 1676 c-10 -7 -18 -17 -18 -21 0 -5 9 0 19 9 11 10 24 15 30 12
5 -4 12 -2 16 4 9 15 -27 12 -47 -4z"/>
<path d="M3770 1675 c-7 -9 -8 -15 -2 -15 5 0 12 7 16 15 3 8 4 15 2 15 -2 0
-9 -7 -16 -15z"/>
<path d="M3848 1635 c-9 -17 -25 -39 -37 -49 -26 -23 -27 -38 -3 -29 15 6 15
5 3 -10 -7 -9 -20 -17 -27 -17 -8 0 -14 -7 -14 -15 0 -8 3 -15 8 -15 16 0 62
52 62 71 0 11 7 31 16 44 9 13 14 30 12 37 -3 8 -11 0 -20 -17z"/>
<path d="M3731 1636 c-9 -11 -9 -15 1 -18 9 -3 10 -9 3 -19 -5 -8 -2 -6 8 5
12 13 15 22 8 24 -6 2 -9 8 -5 13 8 14 -2 11 -15 -5z"/>
<path d="M3208 1573 c6 -2 18 -2 25 0 6 3 1 5 -13 5 -14 0 -19 -2 -12 -5z"/>
<path d="M3320 1553 c-16 -7 -40 -28 -40 -36 0 -8 43 4 58 16 25 19 14 32 -18
20z"/>
<path d="M3496 1515 c-11 -8 -28 -15 -37 -15 -23 0 -30 -12 -19 -30 7 -11 17
-6 46 23 40 38 44 47 10 22z"/>
<path d="M3701 1520 c-1 -8 -15 -29 -32 -46 -30 -31 -31 -33 -8 -27 22 5 21 3
-10 -31 -19 -20 -30 -36 -24 -36 17 0 75 78 68 90 -4 6 -1 17 5 25 7 8 10 20
7 27 -4 10 -6 9 -6 -2z"/>
<path d="M3577 1475 c-15 -14 -23 -25 -17 -25 6 0 8 -5 4 -12 -4 -7 -3 -8 4
-4 7 4 12 12 12 18 0 6 7 20 17 30 23 25 13 22 -20 -7z"/>
<path d="M3513 1393 c-7 -2 -13 -11 -13 -19 0 -8 -4 -14 -10 -14 -5 0 -10 -6
-10 -14 0 -8 -6 -17 -12 -19 -7 -3 -3 -6 9 -6 22 -1 63 41 63 65 0 14 -6 16
-27 7z"/>
<path d="M3330 1379 c0 -6 -9 -8 -20 -4 -11 4 -20 2 -20 -4 0 -6 14 -11 30
-11 17 0 30 4 30 9 0 5 10 12 23 14 16 3 13 5 -10 6 -18 0 -33 -4 -33 -10z"/>
<path d="M2640 3871 c0 -6 4 -13 10 -16 6 -3 7 1 4 9 -7 18 -14 21 -14 7z"/>
<path d="M2855 3869 c-4 -6 -4 -13 -1 -16 8 -8 36 5 36 17 0 13 -27 13 -35 -1z"/>
<path d="M1751 3811 c-18 -3 -40 -15 -47 -27 -13 -18 -12 -23 5 -39 17 -15 29
-16 78 -9 l58 8 -60 6 c-69 6 -82 28 -28 45 18 6 35 14 39 18 8 8 6 7 -45 -2z"/>
<path d="M2035 3799 c-11 -16 25 -49 54 -49 25 1 24 2 -8 15 -23 10 -31 20
-27 30 6 17 -9 21 -19 4z"/>
<path d="M1545 3770 c-9 -10 -17 -32 -17 -47 0 -15 -7 -37 -14 -48 -33 -47 6
-105 61 -91 22 6 25 3 25 -22 0 -32 16 -52 42 -52 10 0 18 -4 18 -9 0 -18 -22
-71 -30 -71 -37 0 -76 56 -66 95 9 37 -9 38 -22 1 -15 -40 -49 -73 -62 -60
-16 16 -38 94 -33 117 2 13 -4 7 -17 -15 -32 -58 -60 -47 -60 23 0 18 -4 28
-10 24 -19 -12 -10 -69 16 -106 14 -21 28 -56 31 -78 3 -23 10 -41 14 -41 15
0 10 59 -6 84 -14 21 -13 24 5 41 20 18 20 18 20 -10 0 -18 11 -38 34 -60 41
-38 54 -86 31 -105 -14 -11 -20 -11 -37 -1 -32 20 -31 7 1 -22 18 -16 33 -41
37 -64 6 -34 8 -35 15 -14 6 14 5 30 -2 43 -9 16 -7 24 5 36 14 14 17 14 34
-1 10 -9 23 -17 29 -17 18 0 44 -37 49 -72 8 -45 -17 -58 -55 -30 -51 37 -58
39 -40 12 9 -14 34 -35 55 -47 25 -14 45 -36 56 -60 16 -37 17 -37 17 -10 1
27 2 28 23 13 12 -9 33 -16 45 -16 31 0 46 -33 38 -86 -6 -43 1 -54 21 -34 6
6 25 7 42 4 40 -8 76 -55 76 -98 0 -31 1 -31 54 -33 66 -2 107 -32 97 -71 -5
-21 -4 -22 16 -12 16 9 19 18 15 36 -6 21 -4 23 11 15 10 -5 30 -12 45 -16 36
-7 53 -38 37 -66 -9 -17 -18 -20 -50 -17 -46 4 -49 -3 -13 -27 21 -14 31 -15
54 -5 21 9 33 9 50 0 12 -6 36 -10 53 -9 49 5 60 -7 53 -55 -6 -32 -4 -38 5
-29 9 9 17 8 35 -4 13 -8 38 -15 56 -16 24 -2 36 -9 45 -27 l13 -25 6 23 c5
17 11 21 28 16 46 -14 60 -54 18 -54 -11 0 -13 -3 -6 -10 7 -7 20 -7 35 -2 13
5 35 6 49 2 18 -4 30 0 45 18 l21 24 -27 27 c-17 17 -37 27 -55 26 -25 0 -29
3 -26 23 2 13 -4 34 -12 47 -9 13 -16 30 -16 37 0 9 -15 13 -42 13 -36 0 -42
3 -40 18 2 10 -4 29 -12 42 -22 33 -20 36 11 20 26 -14 43 -12 43 4 0 5 -13
11 -30 14 -22 5 -33 16 -44 42 -17 41 -29 47 -20 10 8 -32 -11 -55 -45 -55
-39 0 -46 10 -47 68 -1 45 1 52 15 46 37 -16 77 -16 92 2 13 16 12 17 -14 10
-42 -10 -70 9 -62 43 4 21 0 36 -18 57 -13 16 -22 35 -19 43 4 11 -2 13 -25 8
-34 -7 -52 4 -78 46 l-18 28 29 -6 29 -6 -27 16 c-19 10 -28 24 -28 41 l0 25
-24 -28 -24 -27 -36 24 c-20 14 -36 32 -36 40 0 9 -7 26 -16 38 -8 12 -11 22
-5 22 5 0 13 -5 16 -11 10 -15 53 -29 70 -23 24 10 18 34 -7 30 -33 -5 -78 21
-78 45 0 30 -18 59 -37 59 -13 0 -14 -3 -5 -12 17 -17 15 -42 -7 -62 -16 -15
-23 -15 -51 -4 -27 11 -33 19 -34 45 -1 28 3 32 32 38 24 4 32 11 32 27 0 17
-3 19 -12 10 -13 -13 -47 -16 -72 -6 -11 4 -14 13 -10 31 6 22 4 23 -20 17
-28 -7 -66 17 -66 42 0 7 -12 14 -27 16 -25 3 -28 7 -31 46 -3 45 -1 48 29 31
11 -5 28 -8 37 -6 13 3 11 7 -10 15 -39 16 -38 51 2 59 41 8 48 23 11 23 -29
0 -71 -29 -71 -49 0 -13 -55 -24 -80 -16 -28 9 -25 24 12 62 18 18 28 33 22
33 -18 0 -55 -32 -64 -55 -18 -48 -110 -80 -118 -42 -6 30 25 67 56 67 15 0
41 10 57 21 17 12 22 18 10 14 -50 -17 -85 -18 -91 -1 -3 9 -1 23 6 31 19 23
6 28 -15 5z m185 -170 c-20 -37 -57 -61 -84 -54 -27 6 -32 23 -17 52 7 13 22
17 59 17 41 0 49 -3 42 -15z m41 -100 c24 0 24 -22 0 -44 -27 -24 -51 -17 -78
23 l-22 33 21 18 c21 17 23 17 41 -6 10 -13 27 -24 38 -24z m-211 -42 c0 -22
33 -48 61 -48 18 0 35 9 45 23 l17 23 23 -23 c13 -13 35 -23 49 -23 33 0 33
-24 0 -46 -21 -14 -30 -14 -55 -4 -17 7 -34 20 -39 28 -7 12 -10 8 -16 -17 -8
-38 -27 -48 -61 -32 -32 14 -66 88 -53 113 11 20 29 24 29 6z m320 -37 c20
-11 24 -62 6 -86 -14 -19 -15 -19 -35 -1 -17 16 -21 16 -21 4 0 -25 27 -41 62
-35 18 2 42 0 53 -6 11 -6 36 -12 55 -14 34 -4 63 -28 57 -47 -9 -26 -37 -31
-72 -12 -19 11 -35 24 -35 31 0 7 -10 20 -21 31 -22 19 -22 19 -10 -3 13 -25
6 -50 -19 -63 -27 -15 -49 -2 -80 47 -23 35 -27 52 -23 83 3 24 1 46 -6 54 -9
11 -9 19 0 34 12 20 23 18 89 -17z m-200 -71 c0 -14 62 -51 77 -45 15 5 33
-25 33 -54 0 -25 -39 -38 -67 -23 -33 18 -89 84 -75 89 6 3 12 13 12 24 0 10
5 19 10 19 6 0 10 -5 10 -10z m65 -150 c15 0 25 -22 25 -56 0 -20 -5 -24 -29
-24 -47 0 -76 31 -77 83 l-1 45 35 -24 c19 -13 40 -24 47 -24z m155 -43 c0
-28 -13 -56 -27 -62 -21 -7 -60 19 -82 56 -18 29 -18 31 2 53 l20 23 44 -29
c24 -16 43 -35 43 -41z m112 33 c43 0 46 -65 3 -76 -30 -7 -83 20 -97 51 -10
21 -8 28 12 45 l23 20 22 -20 c12 -11 28 -20 37 -20z m75 -4 c11 -19 48 -36
77 -36 27 0 30 -7 20 -34 -9 -22 -76 -21 -102 2 -25 22 -38 82 -17 82 8 0 18
-6 22 -14z m-216 -123 c16 -3 33 -11 39 -18 13 -16 3 -43 -20 -50 -24 -8 -70
15 -70 34 0 9 -6 25 -13 36 -8 11 -17 28 -20 38 -6 15 0 13 24 -8 18 -14 45
-29 60 -32z m119 27 c57 -19 69 -35 50 -69 -15 -30 -41 -26 -83 12 -29 25 -36
37 -31 55 4 12 7 22 8 22 0 -1 26 -9 56 -20z m122 -13 c66 -30 83 -63 53 -97
-37 -41 -108 -9 -98 44 3 15 -2 36 -11 51 -17 26 -21 39 -8 33 4 -2 33 -16 64
-31z m102 -4 c4 -5 26 -13 49 -18 70 -18 88 -75 34 -109 -12 -8 -26 -6 -52 8
-19 11 -38 17 -41 14 -7 -8 45 -48 62 -48 16 0 34 -31 34 -59 0 -24 -41 -54
-67 -49 -13 2 -18 13 -19 36 -1 18 -10 45 -21 61 -20 27 -20 27 -2 53 18 24
18 30 6 67 -14 38 -13 51 3 51 4 0 10 -3 14 -7z m-234 -88 c56 -29 75 -106 31
-120 -30 -9 -65 14 -85 56 -17 38 -17 41 -1 60 22 23 19 23 55 4z m143 -47
c33 -3 53 -22 62 -60 5 -21 2 -30 -18 -43 -21 -13 -30 -14 -49 -4 -40 20 -56
39 -51 60 3 10 -2 30 -11 44 -24 37 -19 48 12 25 15 -11 40 -21 55 -22z m94
-139 c7 -7 29 -15 50 -18 36 -6 38 -9 38 -41 0 -34 -1 -35 -40 -35 -38 0 -40
2 -46 37 -3 20 -11 44 -19 52 -14 18 0 22 17 5z m177 -26 c28 5 35 2 45 -19
21 -47 -12 -72 -68 -48 -21 9 -31 20 -31 35 0 12 -8 31 -17 42 -18 20 -18 20
10 2 18 -12 38 -16 61 -12z m134 -109 c7 -2 18 -15 24 -30 11 -23 10 -28 -7
-40 -10 -8 -32 -14 -48 -14 -27 0 -29 2 -24 29 4 17 0 36 -8 47 -22 29 -18 33
18 22 17 -6 38 -12 45 -14z m-90 -7 c7 -6 12 -19 10 -30 -4 -30 -28 -40 -62
-28 -23 9 -26 14 -16 26 8 10 9 19 0 34 -10 19 -8 20 22 14 18 -3 39 -10 46
-16z m199 -120 c-18 -28 -35 -32 -39 -10 -2 10 5 23 17 29 28 15 39 6 22 -19z"/>
<path d="M2707 3783 c-12 -12 -7 -41 8 -47 17 -6 21 9 4 19 -6 4 -8 13 -5 21
6 15 3 18 -7 7z"/>
<path d="M2385 3769 c-9 -13 20 -45 46 -52 17 -5 16 -2 -6 19 -14 13 -23 29
-20 34 3 6 2 10 -4 10 -5 0 -13 -5 -16 -11z"/>
<path d="M2540 3725 c0 -15 18 -40 24 -34 3 3 -1 14 -9 25 -8 10 -14 15 -15 9z"/>
<path d="M2828 3724 c-3 -3 -3 -14 -1 -25 4 -15 13 -19 31 -17 14 2 27 9 30
16 2 7 -2 10 -12 6 -10 -4 -18 0 -22 10 -6 16 -16 20 -26 10z"/>
<path d="M1474 3706 c-8 -20 -61 -49 -74 -41 -5 3 -7 13 -4 23 5 14 4 15 -5 2
-15 -21 -13 -50 3 -50 29 0 65 20 82 45 9 14 14 28 11 32 -4 3 -9 -2 -13 -11z"/>
<path d="M2262 3698 c-16 -16 -15 -23 4 -42 22 -22 41 -20 21 2 -22 24 -21 39
1 45 13 4 13 5 2 6 -9 0 -21 -4 -28 -11z"/>
<path d="M2078 3664 c-11 -24 -9 -29 20 -55 18 -16 42 -29 55 -29 20 0 19 2
-8 16 -16 8 -36 21 -44 29 -20 20 3 45 43 46 30 1 30 1 6 9 -44 14 -60 11 -72
-16z"/>
<path d="M3000 3676 c0 -7 7 -19 16 -27 17 -14 44 -3 53 22 4 12 2 12 -13 -1
-16 -13 -20 -12 -31 3 -15 21 -25 22 -25 3z"/>
<path d="M2700 3650 c-24 -15 1 -45 41 -47 l34 -2 -35 10 c-44 13 -46 15 -30
34 14 17 11 19 -10 5z"/>
<path d="M2447 3643 c-12 -11 -8 -22 13 -33 18 -9 20 -8 18 15 -2 24 -17 33
-31 18z"/>
<path d="M2877 3637 c-8 -22 8 -57 26 -57 7 0 21 6 31 13 16 12 15 13 -10 12
-22 0 -29 6 -34 25 -5 22 -7 23 -13 7z"/>
<path d="M2504 3545 c-20 -31 -13 -41 37 -56 30 -10 42 -10 51 -1 9 9 7 12 -9
12 -63 0 -74 41 -15 57 l37 10 -42 2 c-35 1 -45 -3 -59 -24z"/>
<path d="M2782 3544 c-12 -8 -22 -21 -22 -29 0 -17 31 -35 57 -35 13 1 11 5
-10 16 -27 14 -29 34 -3 34 7 0 21 7 32 15 18 14 18 14 -6 15 -14 0 -36 -7
-48 -16z"/>
<path d="M2930 3531 c-5 -11 -10 -26 -10 -35 0 -8 -9 -17 -19 -21 -26 -8 -34
-45 -14 -67 18 -20 50 -23 73 -8 11 7 7 10 -18 10 -65 0 -44 57 23 61 25 1 26
2 7 6 -27 5 -40 29 -23 46 14 14 14 27 1 27 -5 0 -14 -9 -20 -19z"/>
<path d="M3049 3514 c-19 -23 1 -49 42 -51 l34 -2 -34 10 c-28 9 -32 14 -28
35 5 28 4 29 -14 8z"/>
<path d="M2710 3483 c-71 -27 -61 -93 14 -93 21 0 26 -5 26 -25 0 -28 26 -45
67 -44 27 1 27 1 -7 13 -51 19 -53 51 -3 64 36 9 34 10 -30 9 -50 0 -73 4 -85
16 -22 22 -6 37 42 40 20 2 36 7 36 12 1 12 -38 17 -60 8z"/>
<path d="M2398 3459 c-24 -13 -23 -46 1 -59 11 -5 35 -10 53 -9 l33 1 -42 15
c-54 18 -57 43 -7 43 21 0 33 4 29 10 -8 13 -45 12 -67 -1z"/>
<path d="M3013 3423 c-24 -16 -30 -47 -12 -58 17 -11 75 -8 96 4 14 9 11 10
-20 5 -24 -4 -43 -2 -52 6 -14 11 -14 15 1 31 22 25 15 31 -13 12z"/>
<path d="M2280 3405 c-7 -8 -10 -21 -7 -28 6 -17 73 -50 90 -44 7 2 -5 12 -25
21 -21 10 -38 24 -38 30 0 7 17 17 38 23 l37 10 -41 2 c-26 1 -46 -5 -54 -14z"/>
<path d="M3135 3367 c-13 -32 42 -67 60 -37 4 6 -3 9 -16 7 -17 -1 -24 5 -29
23 -6 22 -8 23 -15 7z"/>
<path d="M2892 3354 c-27 -19 -29 -60 -3 -74 23 -12 111 -2 111 13 0 5 -13 7
-30 3 -36 -7 -83 9 -78 26 3 7 19 17 36 22 18 5 32 13 32 17 0 15 -44 10 -68
-7z"/>
<path d="M2645 3325 c-3 -8 -7 -22 -10 -30 -2 -8 -13 -15 -23 -15 -20 0 -52
-29 -52 -47 0 -12 60 -43 84 -43 22 0 20 20 -1 20 -10 0 -27 8 -38 16 l-20 15
20 15 c14 11 31 13 55 9 19 -4 45 -7 58 -7 30 0 28 -26 -3 -38 -24 -9 -42 -48
-32 -73 2 -7 17 -19 33 -27 16 -8 31 -16 33 -17 2 -1 -1 -9 -7 -16 -21 -25 8
-47 68 -52 l55 -5 -45 13 c-56 16 -65 42 -20 61 26 10 29 14 15 20 -9 3 -23 6
-32 6 -26 0 -83 32 -83 46 0 11 18 14 74 14 41 0 78 4 81 10 3 5 0 7 -8 4 -20
-7 -67 13 -67 30 0 9 12 22 28 30 l27 15 -28 1 c-16 0 -36 -4 -45 -9 -11 -5
-31 -4 -52 3 -46 15 -49 48 -5 57 27 6 25 7 -13 8 -30 1 -44 -3 -47 -14z"/>
<path d="M3069 3305 c-15 -8 -29 -21 -32 -29 -14 -37 66 -64 93 -31 11 13 8
14 -16 10 -16 -3 -36 -1 -44 4 -12 8 -11 14 10 35 27 30 25 31 -11 11z"/>
<path d="M3202 3297 c-12 -13 -22 -35 -22 -50 0 -24 4 -27 34 -27 25 0 38 6
50 25 21 31 21 47 0 17 -8 -12 -23 -22 -33 -22 -27 0 -35 29 -15 52 25 27 11
32 -14 5z"/>
<path d="M2450 3225 c-7 -8 -10 -21 -7 -29 8 -20 64 -48 85 -43 12 3 5 9 -21
21 -46 20 -47 48 -2 57 30 7 29 7 -6 8 -21 1 -42 -5 -49 -14z"/>
<path d="M2363 3194 c-7 -18 20 -44 46 -44 13 0 13 2 -1 17 -16 15 -16 17 0
29 15 12 14 13 -11 14 -17 0 -30 -7 -34 -16z"/>
<path d="M3026 3189 c-17 -14 -26 -29 -24 -43 3 -18 9 -21 55 -21 29 1 58 6
65 13 9 9 0 10 -40 5 -48 -5 -52 -4 -52 14 0 11 10 28 23 36 12 9 17 16 11 16
-6 1 -23 -9 -38 -20z"/>
<path d="M2882 3164 c-27 -19 -29 -60 -3 -74 11 -5 33 -10 50 -10 26 0 30 -3
28 -27 -1 -18 3 -28 14 -31 11 -2 15 4 15 20 -1 19 8 26 49 40 l50 18 -47 -6
c-33 -3 -48 -2 -48 6 0 8 -10 9 -29 5 -58 -13 -98 39 -48 63 14 7 17 11 7 11
-9 1 -26 -6 -38 -15z"/>
<path d="M3150 3144 c-13 -33 -6 -44 28 -44 26 1 26 1 7 16 -16 12 -18 18 -7
34 10 17 10 20 -3 20 -9 0 -20 -12 -25 -26z"/>
<path d="M2700 2505 c0 -7 -8 -15 -17 -17 -12 -2 -14 -6 -7 -11 6 -3 21 2 33
12 18 16 19 20 6 25 -9 3 -15 0 -15 -9z"/>
<path d="M478 3674 c-36 -19 -48 -43 -48 -97 0 -55 28 -84 91 -93 39 -5 47 -3
71 23 15 16 30 45 33 66 6 34 3 42 -33 77 -43 43 -69 49 -114 24z m88 -46 c44
-42 19 -108 -40 -108 -53 0 -78 84 -34 114 30 22 46 20 74 -6z"/>
<path d="M6550 3517 c-69 -35 -63 -150 10 -176 91 -31 160 91 91 160 -32 31
-61 36 -101 16z m75 -42 c31 -30 31 -37 2 -71 -19 -21 -29 -26 -50 -20 -41 10
-52 63 -20 99 22 23 39 21 68 -8z"/>
<path d="M5590 3195 c-7 -9 -11 -18 -8 -20 3 -3 11 1 18 10 7 9 11 18 8 20 -3
3 -11 -1 -18 -10z"/>
<path d="M5526 3174 c-15 -14 -26 -28 -23 -31 7 -7 67 35 67 48 0 15 -13 10
-44 -17z"/>
<path d="M5463 3167 c-22 -10 -40 -37 -24 -37 13 0 57 37 51 43 -3 2 -15 0
-27 -6z"/>
<path d="M5155 3150 c-3 -5 -1 -10 4 -10 6 0 11 5 11 10 0 6 -2 10 -4 10 -3 0
-8 -4 -11 -10z"/>
<path d="M5307 3153 c-4 -3 -7 -12 -7 -20 0 -11 4 -11 20 -1 11 7 20 16 20 20
0 10 -24 10 -33 1z"/>
<path d="M5245 3140 c4 -6 11 -8 16 -5 14 9 11 15 -7 15 -8 0 -12 -5 -9 -10z"/>
<path d="M3465 518 c-38 -30 -58 -79 -45 -114 15 -39 50 -63 91 -64 47 0 85
30 100 80 10 34 9 42 -10 69 -12 17 -34 34 -49 37 -15 3 -34 8 -43 10 -9 2
-28 -5 -44 -18z m100 -42 c34 -51 -22 -108 -77 -80 -21 11 -28 22 -28 44 0 55
76 81 105 36z"/>
</g>
</svg>
