<svg width="60" height="60" viewBox="0 0 60 60" fill="none" xmlns="http://www.w3.org/2000/svg">
<mask id="mask0" mask-type="alpha" maskUnits="userSpaceOnUse" x="0" y="0" width="60" height="60">
<rect width="60" height="60" fill="#C4C4C4"/>
</mask>
<g mask="url(#mask0)">
<path fill-rule="evenodd" clip-rule="evenodd" d="M15.5847 -0.317006L17.0129 -1.71704L29.9996 11.5314L42.9643 -1.71645L44.3937 -0.317596L30.0008 14.3897L15.5847 -0.317006ZM6.68357 3.63835L8.11298 2.23949L30.0005 24.605L51.888 2.23949L53.3174 3.63835L30.0005 27.4645L6.68357 3.63835ZM21.7451 29.9938L3.45316 11.3025L4.88256 9.90361L24.5434 29.9938L4.88256 50.0841L3.45316 48.6852L21.7451 29.9938ZM38.2447 29.9938L56.5365 11.3025L55.1071 9.90361L35.4463 29.9938L55.1071 50.0841L56.5365 48.6852L38.2447 29.9938ZM61.3191 15.3172L62.7485 16.716L49.7542 29.9941L62.7485 43.2723L61.3191 44.6711L46.9559 29.9941L61.3191 15.3172ZM-1.31925 15.3289L13.0441 30.0059L-1.31925 44.6829L-2.74866 43.284L10.2457 30.0059L-2.74866 16.7278L-1.31925 15.3289ZM30.0005 32.5353L53.3174 56.3615L51.888 57.7603L30.0005 35.3948L8.11298 57.7603L6.68357 56.3615L30.0005 32.5353ZM30.0002 45.6102L44.4163 60.3169L42.9881 61.7169L30.0014 48.4685L17.0367 61.7163L15.6073 60.3174L30.0002 45.6102Z" fill="#212121"/>
</g>
</svg>
