<svg width="60" height="66" viewBox="0 0 60 66" fill="none" xmlns="http://www.w3.org/2000/svg">
<path d="M19.1372 58.895H9.60379C9.60379 58.895 5.1145 62.0843 5.1145 66H12.6113L14.3705 65.0506L16.1297 66H23.6265C23.6265 62.0843 19.1372 58.895 19.1372 58.895V58.895Z" fill="#EFEDEE"/>
<path d="M42.5236 58.895H40.948C40.948 58.895 36.4578 62.0843 36.4578 66H42.5236L45.7147 62.4477L42.5236 58.895Z" fill="#0056F5"/>
<path d="M48.9047 58.895H50.4803C50.4803 58.895 54.9701 62.0843 54.9701 66H48.9047L45.7136 62.4477L48.9047 58.895Z" fill="#0056F5"/>
<path d="M0.585938 46.3748C0.585938 33.442 7.11823 31.5126 14.3706 31.5126C17.7603 31.5126 20.7811 31.2644 23.0365 31.0003C25.4723 30.7151 27.6512 32.5151 27.8325 34.9609C28.0101 37.3646 28.1552 40.9791 28.1552 46.3748H0.585938Z" fill="#F18800"/>
<path d="M16.1297 66L15.5451 61.9973H13.1954L12.6113 66H16.1297Z" fill="#E16567"/>
<path d="M12.6113 59.3546V60.6885C12.6113 61.6599 13.3987 62.4477 14.3705 62.4477C15.3419 62.4477 16.1297 61.6599 16.1297 60.6885V59.3546H12.6113Z" fill="#FB7073"/>
<path d="M42.5234 58.895H48.9047V66H42.5234V58.895Z" fill="#EFEDEE"/>
<path d="M31.9299 46.3757C31.9299 39.2374 37.7216 33.4105 45.0046 33.053H46.4236C53.7067 33.41 59.4983 39.2374 59.4983 46.3757H31.9299Z" fill="#596673"/>
<path d="M47.525 33.1505C47.162 33.1042 46.7949 33.0713 46.4236 33.053H45.0046C37.7216 33.41 31.9299 39.2374 31.9299 46.3757H35.5518C35.5518 39.6013 40.768 34.0083 47.525 33.1505Z" fill="#4B5866"/>
<path d="M34.9026 58.1293H56.5256C58.1671 58.1293 59.4983 56.7986 59.4983 55.1566V46.3757H31.9299V55.1566C31.9299 56.7981 33.2611 58.1293 34.9026 58.1293Z" fill="#596673"/>
<path d="M35.5518 55.1566V46.3757H31.9299V55.1566C31.9299 56.7986 33.2607 58.1293 34.9026 58.1293H38.5245C36.8825 58.1293 35.5518 56.7986 35.5518 55.1566Z" fill="#4B5866"/>
<path d="M14.3706 38.6724C28.0806 38.6724 28.1552 46.3747 28.1552 46.3747C28.1552 53.7419 21.9836 59.7144 14.3706 59.7144C6.75751 59.7144 0.585938 53.7419 0.585938 46.3747C0.585938 46.3747 0.660095 38.6724 14.3706 38.6724Z" fill="#FAC4AE"/>
<path d="M0.585938 46.3748H4.20776C4.20776 33.442 10.7401 31.5126 17.9924 31.5126C17.9924 31.5126 14.3719 31.5126 14.3706 31.5126C11.8776 31.5126 9.46976 31.7405 7.38327 32.565C6.5332 32.901 5.72433 33.3436 4.99969 33.9016C2.32269 35.9634 0.585938 39.7061 0.585938 46.3748Z" fill="#F18800"/>
<path d="M59.4983 46.3756C59.4983 53.7415 53.3267 59.7149 45.7141 59.7149C38.101 59.7149 31.9299 53.7415 31.9299 46.3756C31.9299 46.3756 37.7014 44.0644 41.0994 39.6145C41.4995 39.0926 42.2173 38.9384 42.794 39.2551C45.363 40.6705 52.348 44.3262 59.4983 46.3756V46.3756Z" fill="#FAC4AE"/>
<path d="M31.9299 46.3756C31.9299 53.7415 38.101 59.7149 45.7141 59.7149C46.2694 59.7149 46.8173 59.6819 47.3557 59.6201C40.6078 58.9628 35.1045 54.7697 35.5518 44.4718L31.9299 46.3756Z" fill="#E2B09A"/>
<path d="M7.80219 48.1931C7.30231 48.1931 6.89673 47.7875 6.89673 47.2876V46.0104C6.89673 45.5101 7.30231 45.105 7.80219 45.105C8.30252 45.105 8.70764 45.5101 8.70764 46.0104V47.2876C8.70764 47.7875 8.30252 48.1931 7.80219 48.1931Z" fill="#464C51"/>
<path d="M20.9391 48.1931C20.4388 48.1931 20.0337 47.7875 20.0337 47.2876V46.0104C20.0337 45.5101 20.4388 45.105 20.9391 45.105C21.439 45.105 21.8446 45.5101 21.8446 46.0104V47.2876C21.8446 47.7875 21.439 48.1931 20.9391 48.1931Z" fill="#464C51"/>
<path d="M14.3706 49.9981C13.6515 49.9981 12.9749 49.6955 12.5139 49.1686C12.1853 48.7918 12.2233 48.2201 12.6 47.891C12.9763 47.5618 13.5485 47.6003 13.8776 47.977C13.9944 48.1102 14.1743 48.1871 14.3706 48.1871C14.567 48.1871 14.7469 48.1102 14.8637 47.977C15.1928 47.6003 15.765 47.5618 16.1413 47.891C16.518 48.2201 16.5565 48.7918 16.2273 49.1686C15.7664 49.6955 15.0898 49.9981 14.3706 49.9981V49.9981Z" fill="#464C51"/>
<path d="M39.1462 48.1931C38.6463 48.1931 38.2407 47.7875 38.2407 47.2876V46.0104C38.2407 45.5101 38.6463 45.105 39.1462 45.105C39.6461 45.105 40.0516 45.5101 40.0516 46.0104V47.2876C40.0516 47.7875 39.6461 48.1931 39.1462 48.1931Z" fill="#464C51"/>
<path d="M52.2827 48.1931C51.7828 48.1931 51.3772 47.7875 51.3772 47.2876V46.0104C51.3772 45.5101 51.7828 45.105 52.2827 45.105C52.783 45.105 53.1881 45.5101 53.1881 46.0104V47.2876C53.1881 47.7875 52.783 48.1931 52.2827 48.1931Z" fill="#464C51"/>
<path d="M45.7145 49.9981C44.9953 49.9981 44.3183 49.6955 43.8578 49.1686C43.5286 48.7918 43.5671 48.2201 43.9438 47.891C44.3201 47.5618 44.8918 47.6003 45.2214 47.977C45.3382 48.1102 45.5176 48.1871 45.7145 48.1871C45.9108 48.1871 46.0907 48.1102 46.2075 47.977C46.5361 47.6003 47.1083 47.5618 47.4851 47.891C47.8614 48.2201 47.8998 48.7918 47.5707 49.1686C47.1102 49.6955 46.4336 49.9981 45.7145 49.9981V49.9981Z" fill="#464C51"/>
<path d="M14.7908 59.7072C15.2559 59.6921 15.7196 59.6587 16.1815 59.6001C9.42398 58.7418 4.20776 53.1479 4.20776 46.3748C4.20776 44.1542 4.40002 42.2586 4.75571 40.6409C0.62027 42.9228 0.585938 46.3744 0.585938 46.3748C0.585938 49.5979 1.76743 52.5542 3.73352 54.8604C6.36841 57.9498 10.3203 59.7145 14.3706 59.7145C14.5107 59.7145 14.6507 59.7118 14.7908 59.7072V59.7072Z" fill="#E2B09A"/>
<path fill-rule="evenodd" clip-rule="evenodd" d="M30.7176 2.0107L16.6563 4.39055C16.2306 4.46245 15.9404 4.87879 16.0104 5.31611L19.3799 26.3258C19.4499 26.7631 19.8552 27.0612 20.281 26.9893L34.3437 24.6095C34.768 24.5376 35.0596 24.1212 34.9896 23.6839L31.6186 2.6742C31.5487 2.23683 31.1433 1.9388 30.7176 2.0107V2.0107Z" fill="#099D2F"/>
<circle cx="25" cy="12" r="4" fill="#0A7225"/>
<path fill-rule="evenodd" clip-rule="evenodd" d="M25.832 1H41.168C41.6255 1 42 1.34382 42 1.76395V22.2361C42 22.6561 41.6255 23 41.168 23H25.832C25.3745 23 25 22.6562 25 22.2361V1.76395C25 1.34387 25.3745 1 25.832 1V1Z" fill="#F9F7F8"/>
<circle cx="33.5" cy="9.5" r="4.5" fill="#D6D6D6"/>
</svg>
